<svg id="Layer_1" data-name="Layer 1" xmlns="http://www.w3.org/2000/svg" viewBox="0 0 413.78 62.7"><title>vector_logo</title><path d="M43.66,3.72C38.87,12.58,27.75,19.19,17.84,27c-9,7.07-16.54,14.8-8.16,35.13.77,2-2.51,1.72-3.14-.58-8.27-20.79,0-28.43,9.63-35.15C26.83,19,38.62,12.59,43.66,3.66Zm-5.5,14.11a89.76,89.76,0,0,1-7.91,6C24.77,27.41,20.14,32.55,19,38.71c0,.55-1.73.75-1.61.07,2.87-10,13.77-16,20.53-20.92a55.7,55.7,0,0,0,6.13-5.46S38.7,17.38,38.16,17.83Zm5.54,1.88c-2.82,2.8-6.8,5.64-10.15,8.92-4.15,4.07-7.51,9-8.39,14.63,0,.48-1.41.83-1.31.2,1.21-6.05,4.9-10.59,9.24-14.72,3.54-3.36,7.7-6.22,10.61-9.06Zm-.58,7.16c-1.89,2.32-4.42,4.34-6.58,6.79-2.71,3.08-4.35,7.36-5.4,12.85,0,.5-1.31.53-1.19-.1a25.69,25.69,0,0,1,6.33-12.76c2.27-2.49,4.89-4.47,6.85-6.81Z" transform="translate(-2.31 -2.68)" style="fill:#3130bd;fill-rule:evenodd"/><path d="M18.33,27.81l-1-1.64.94-.73.94-.72,1-.72.94-.71.95-.71,1-.71,2.83-2.09.93-.69.93-.69.91-.69.91-.69.89-.69.88-.69.87-.7.85-.69.84-.7.81-.7.8-.71.77-.71.75-.72.73-.72.7-.73.67-.73.65-.74L40.36,7,41,6.29l.55-.77L42,4.75,42.5,4,43,3.18l1.43,1.09-.49.86L43.37,6l-.56.82-.59.82-.62.8L41,9.19l-.68.78-.7.77-.73.75-.75.75-.78.74-.79.73-.82.72-.83.72-.85.71-.87.71-.88.7-.89.7-.9.7-.92.7-.92.69-.93.7-.93.69L24,23.54l-.95.7-.94.71-.94.71-.94.71-.94.72ZM10.45,61.75l-1.53.74v0l-.75-1.9L7.52,58.8,7,57l-.49-1.7-.4-1.64-.32-1.58-.25-1.52-.16-1.47-.1-1.41V46.35l0-1.32.11-1.26.19-1.22.24-1.17.31-1.12.36-1.09.42-1,.46-1,.51-1,.56-.93L9,34.37l.63-.86.67-.83.69-.8.73-.77.75-.75.77-.74.79-.71.81-.7.82-.69.84-.68.84-.67,1,1.64-.83.66-.82.67-.81.67-.78.68-.76.69-.74.7-.72.72-.68.73-.66.75-.62.77-.58.79-.55.81-.5.85-.47.86-.41.9L8,40,7.7,41l-.27,1-.22,1L7,44.1l-.1,1.14-.05,1.19,0,1.25L7,49l.16,1.36.22,1.42.31,1.49.38,1.55.46,1.62.55,1.69.64,1.77.73,1.84v0Zm0,0a1,1,0,0,1-.39,1.3.82.82,0,0,1-1.12-.49Zm-4.65.21,1.51-.78,0,.12,0,.12,0,.12.05.11.07.11.07.1.08.09.09.09.09.09.1.08.1.06.11.07.11,0,.1,0,.11,0,.1,0h.44l0,0,0,0,0,0,0,.05v0H9v-.07l0-.09,1.53-.74.09.28.07.29,0,.29v.3l-.05.3-.1.28-.14.25-.16.21-.19.17-.2.12-.2.1-.2.06-.21,0H8.77l-.21,0-.21,0-.2,0-.21-.07-.21-.08-.2-.11L7.33,64l-.2-.14-.2-.15-.19-.17-.18-.19-.17-.2-.16-.23-.15-.24L6,62.39l-.11-.29-.09-.29Zm0-.12a1,1,0,0,1,.54-1.21.85.85,0,0,1,1,.67Zm10-36.26.89,1.69-.89.63-.88.63-.86.65-.85.65-.82.66-.8.68-.78.7-.74.71-.71.74L8.6,34,8,34.82l-.6.81-.56.83-.52.86-.46.89-.42.93-.38,1-.31,1-.27,1.05-.2,1.09-.15,1.15L4,45.61l0,1.26,0,1.31.12,1.38L4.36,51l.27,1.51L5,54.09l.44,1.65L6,57.47l.62,1.8.71,1.88-1.51.78L5.05,60,4.4,58.12l-.55-1.8-.47-1.74L3,52.91l-.3-1.61L2.5,49.76l-.13-1.49-.06-1.44,0-1.38.1-1.32.16-1.28.23-1.23.29-1.17.36-1.13.42-1.08.46-1,.52-1,.57-1,.61-.91.66-.88.69-.84.72-.81L8.88,31l.79-.75.81-.73.83-.71.85-.69.88-.67.88-.66.9-.64Zm0,0a.78.78,0,0,1,1.16.35,1.06,1.06,0,0,1-.27,1.34ZM44.5,3.65H42.83l1.54.55-.52.87-.55.85-.58.83-.63.81-.65.8-.69.79L40,9.93l-.75.76-.77.75-.79.73-.83.73-.84.72-.86.71-.89.7-.9.7-.92.69-.94.69-.95.68-1,.68-1,.67-1,.67-1,.67-1,.67-1,.67-3,2-1,.68-1,.67-1,.68-1,.69-1,.69-.89-1.69,1-.7,1-.69,1-.68,1-.69,1-.67,3-2,1-.67,1-.67,1-.66,1-.67,1-.67.95-.67.94-.67.92-.67.91-.68.88-.69.87-.68.84-.7.82-.7.79-.7.77-.71.75-.72.71-.73.68-.74L40.23,7l.62-.75.58-.77L42,4.68l.51-.79L43,3.1ZM43,3.1a.75.75,0,0,1,1.16-.25,1.1,1.1,0,0,1,.25,1.36Zm1.42,1.17L43,3.18l-.12.55h0v0h0v0h0v0h0v0h0v0H44.5v0h0v0h0v0h0v0h0v0h0Zm.12-.55a.9.9,0,0,1-.81,1,.94.94,0,0,1-.86-1ZM30.68,24.64l-.86-1.71.26-.18.26-.17.26-.17.26-.18.26-.18.25-.18.26-.18.25-.18.25-.18.26-.18.25-.18.25-.18.25-.19.25-.18.24-.19.25-.18.24-.19.25-.19.24-.18.24-.19.24-.19.24-.19.24-.19.24-.19.23-.19.24-.19.23-.18.23-.19L37,17.6l.24-.19.22-.19.23-.19,1,1.6-.23.2L38.2,19l-.23.19-.24.19-.23.2-.24.19L37,20l-.24.19-.24.2-.24.19-.25.19-.24.19-.25.19-.24.19-.25.19-.25.19-.25.19-.25.19-.25.19-.26.19-.25.18-.26.19L33,23l-.26.19-.26.18-.26.19-.26.18-.26.18-.26.18-.27.18-.26.18Zm0,0a.79.79,0,0,1-1.15-.38,1,1,0,0,1,.29-1.33ZM19.84,38.72l-1.67,0v-.22l.13-.61.14-.61.17-.6.19-.59.2-.58.23-.57.24-.57.26-.56.27-.55.3-.54.3-.53.33-.53.34-.51.35-.51.36-.5.38-.49.4-.49.4-.47.42-.47.42-.46.44-.44.45-.44.45-.44.47-.42.47-.41.49-.41.49-.4.5-.38.5-.38.51-.37.52-.36.52-.35.86,1.71-.5.34-.5.34-.49.36-.48.36-.47.37-.47.38-.46.38-.45.4-.44.4-.43.4-.43.42-.41.42-.4.43-.39.44-.38.44-.36.45-.35.46-.34.46-.33.47-.31.47-.29.48-.28.49-.27.49-.25.5-.23.5-.22.51-.2.51-.18.52-.17.52-.14.52-.13.53-.11.54,0-.22Zm0,.22a.81.81,0,0,1-1,.72,1,1,0,0,1-.65-1.19Zm-3.22-.5,1.59.68,0-.11v-.27l0-.16-.07-.14-.07-.1L18,38.28l-.05,0h.38l0,0h.05l0,0,0,0-.05.06-.05.11,0,.14v.17l1.67,0,0,.27-.07.24-.1.2-.1.15-.11.12-.12.1-.1.08-.11.06L19,40l-.11,0-.11,0-.1,0-.11,0-.11,0h-.67l-.12,0-.12,0-.12,0L17.3,40,17.17,40l-.14-.1-.15-.14-.13-.18-.11-.23-.07-.26,0-.27,0-.24Zm0,.11a.81.81,0,0,1,1-.72A1,1,0,0,1,18.21,39ZM37.46,17l.93,1.67-.66.48-.67.48-.69.48-.71.49-1.45,1-.75.51-.75.52L32,23.2l-.76.54-.76.55-.76.57-.75.57-.75.59-.74.6-.73.61-.72.63-.71.64-.68.65-.67.67-.65.68-.62.7-.59.72-.57.73L21,33.4l-.51.76-.47.78-.44.8-.4.82-.36.83-.32.85-.27.88-1.59-.68.31-1,.35-1,.4-.92.44-.91.48-.87.51-.85.55-.83.58-.8.61-.78.63-.76.66-.74.68-.72.7-.7.72-.68.73-.67.74-.65.75-.63.77-.61.76-.61.77-.58.78-.58.77-.56.77-.55.76-.54.76-.52.74-.52,1.46-1,.7-.49.68-.48.66-.47.64-.46Zm7.43-4.59-1.67-.06,1.4.77-.14.14-.14.15-.15.15-.15.15-.16.16-.17.16-.17.17-.17.17-.18.17-.18.18-.19.17-.19.18-.2.19-.2.18-.2.19-.2.18-.21.19-.21.19-.21.18-.21.19-.22.19-.21.18-.22.19-.21.18-.22.18-.22.18-.22.18-.22.17L39,18.2l-.21.17-.22.16-.21.16L37.46,17l.21-.15.2-.15.21-.16.2-.16.21-.17.21-.17.21-.17.21-.18.21-.17.21-.18.21-.18L40,15l.21-.18.2-.19.2-.18.21-.18.19-.18.2-.18.19-.18.19-.18.19-.18.18-.17L42.1,13l.18-.17.17-.17.16-.16.16-.16.16-.15.15-.15.14-.14.14-.14.13-.14Zm-1.4-.78a.76.76,0,0,1,1.18.11,1.08,1.08,0,0,1-.05,1.38Zm-4.83,7-1-1.6.05-.05.09-.07.11-.1.13-.12.16-.15.18-.16.19-.17.21-.2.46-.42,4.15-3.84.07-.07,0,0-.28.73,1.67.06-.31.75,0,.05-.07.07-.1.09L41.58,16l-1.52,1.4-.43.39-.2.18-.18.17-.16.14-.13.13-.12.1-.1.09Zm0,0a.77.77,0,0,1-1.17-.24A1.07,1.07,0,0,1,37.66,17ZM34.1,29.39,33,27.87l.32-.31.33-.31L34,27l.33-.31.34-.3L35,26l.33-.29.34-.29.34-.3.33-.28.34-.29.34-.28.33-.29.34-.28.33-.28,1-.82.33-.27.32-.27.32-.27.32-.27.31-.26.31-.27.3-.26.3-.26.29-.27.28-.26.28-.25.28-.26.27-.26.26-.25,1.1,1.51-.27.27L43.7,21l-.29.27-.29.26-.3.27-.3.27-.3.27-.31.27-.31.27-.32.27-.32.27-.32.27-.33.28-.33.27-1,.82-.33.28-.33.28-.34.28-.33.28-.33.28-.33.29-.33.28-.33.29-.33.29-.33.29-.32.29-.32.3-.32.3-.31.29-.31.3Zm0,0a.76.76,0,0,1-1.18-.14A1.08,1.08,0,0,1,33,27.87ZM26,43.28l-1.68,0,0-.19.09-.55.11-.55.12-.54.14-.54.15-.53.17-.53.18-.53.19-.51.2-.52.22-.51.23-.5.24-.5.25-.49.26-.49.27-.48.28-.48.29-.47.3-.47.3-.46.32-.46.33-.45.33-.45.34-.44.35-.44.35-.43.36-.42.37-.42.37-.41.38-.41.39-.41.39-.39.39-.4,1.1,1.52-.38.38-.37.38-.37.39-.36.39-.36.39-.35.4-.34.41-.34.41L30.9,33l-.32.42-.32.42-.3.43-.3.43-.29.43-.28.44-.27.44-.26.44-.25.45-.24.45-.23.46-.22.46-.21.46-.2.47-.19.46-.17.48-.16.47-.15.48-.14.48-.12.48-.11.49-.1.48-.09.5,0-.19Zm0,.19a.82.82,0,0,1-1,.75,1,1,0,0,1-.67-1.17ZM23,43.21l1.63.5v-.28l0-.16-.07-.15L24.48,43l-.08-.09-.07,0-.06,0h.1l0,0h.09l0,0,0,0,0,.06,0,.1,0,.13v.15l1.68,0,0,.24-.06.22-.07.18-.09.14-.09.12-.1.1-.09.08-.09.07-.09.06-.1,0-.09.05-.09,0-.09,0-.1,0-.1,0-.09,0-.1,0H24l-.12,0-.13,0-.14-.07-.14-.1-.15-.14-.14-.19-.1-.23L23,43.71l0-.24,0-.22Zm0,0a.82.82,0,0,1,1-.75,1,1,0,0,1,.67,1.17ZM32.55,28l1.09,1.54-.41.38-.39.39-.39.39-.39.39-.38.39-.37.4-.37.4-.36.4-.36.4-.34.41-.34.42-.33.41-.33.42-.31.43-.31.43L28,36l-.28.44-.28.44-.27.45-.26.45-.25.46-.23.47-.23.47-.21.48-.21.48-.19.49-.18.49-.16.51-.16.51-.14.51-.13.53-.11.53L23,43.21l.12-.59.15-.59.15-.57.17-.56.19-.56.19-.55.21-.54.23-.53.23-.52.25-.51.26-.51.27-.5.28-.49.28-.48.3-.48.31-.47L27,34.3l.33-.46.33-.45.34-.45.35-.44.36-.43.37-.43.37-.42.37-.42.39-.42.38-.41.4-.41.39-.4.41-.4.4-.4Zm0,0a.76.76,0,0,1,1.18.16,1.1,1.1,0,0,1-.09,1.38Zm12-8.22-1.68-.13,1.39.82-.28.28-.3.27-.29.27-.3.28-.31.27-.32.27-.31.27-.32.28-.33.27-.33.27-.33.28-.34.27-.34.28-.34.27-1.38,1.12-.35.28-.35.29-.35.28-.35.29-.35.29-.34.29L36,27.4l-.34.29-.35.3-.34.3-.33.3-.34.3L34,29.2l-.32.31L32.55,28l.34-.32.35-.31.34-.32.35-.31.35-.3.35-.31.35-.3.35-.3.35-.29.36-.29.35-.3.35-.28.35-.29.36-.28,1.38-1.12.34-.28.33-.27.34-.27.33-.27.32-.27.32-.27.31-.26.31-.27.31-.26L42,20l.29-.26.29-.26.27-.26.27-.26,1.39.83Zm-1.39-.83a.77.77,0,0,1,1.19.14,1.1,1.1,0,0,1-.09,1.38Zm1.1,1.55L43.15,19l-.29.69v-.07h0v.1h0v-.1h0v.09h0v-.09h0v.09h0v-.1h0v0h0v.09h0v-.09h0v.09h0v-.09h0v.09h0v-.1h0v.06l1.68.13v.06h0v-.09h0v.09h0v-.09h0v.1h0v-.1h0v.1h0v0h0v-.09h0v.1h0v-.1h0v.1h0v-.09h0v.09h0v0Zm.29-.69a.87.87,0,0,1-.87.91,1,1,0,0,1-.81-1Zm-7.41,14.6L35.94,33l.21-.24.21-.23.22-.23.21-.23L37,31.8l.21-.22.22-.22.22-.22.21-.22.22-.21.22-.21.21-.21.22-.21.21-.21.65-.62.21-.21.21-.2.2-.2.21-.21.2-.2.2-.2.2-.21.2-.2.19-.2.19-.21.19-.2L42,26.8l.18-.2.17-.21.18-.21,1.23,1.38-.19.23-.19.22-.2.22-.19.22-.2.22-.2.22-.2.21-.21.21-.2.21-.21.21-.21.21-.21.21-.22.21-.21.21-.21.21-.43.41-.21.21-.22.2-.21.21L39.4,32l-.21.21-.21.21-.21.21-.21.21-.21.21-.21.22-.21.21-.2.22-.2.22-.2.22ZM32,46.64l-1.67-.26v-.11l.11-.52.1-.52.11-.5.11-.51.12-.49.12-.49.13-.48.13-.47.13-.47.14-.46.15-.46.14-.44L32,40l.16-.43.16-.43.17-.42.17-.41.18-.41.19-.4.19-.39.19-.39.2-.38.21-.37.22-.36.22-.36.22-.35.23-.35.24-.34.25-.33.25-.32.26-.31.26-.31,1.19,1.43-.24.27-.23.29-.23.28-.22.3-.21.3-.21.31-.2.32-.2.32-.2.34-.19.33-.18.35-.18.35-.17.36-.17.37-.17.37-.16.39-.15.39-.16.39-.14.41-.15.41-.14.42-.13.42-.13.44-.13.44-.12.45-.12.46-.12.46-.11.47-.11.48-.1.49-.1.49-.1.5Zm0,.11a.81.81,0,0,1-1,.71,1,1,0,0,1-.64-1.19Zm-2.83-.61,1.63.53v-.22l0-.12,0-.11,0-.1L30.61,46,30.56,46l0,0,0,0h.06l0,0,0,0,0,0-.05.07,0,.09,0,.11,0,.12,1.67.26,0,.21-.06.2-.09.17-.1.14-.1.11-.11.1-.1.07-.1,0-.1.05-.1,0-.1,0-.1,0-.1,0h-.39l-.1,0h-.1l-.11,0-.11,0-.1,0-.12-.07-.11-.07-.12-.1-.12-.13-.1-.16L29.21,47l-.07-.21,0-.22v-.21l0-.2Zm0,0a.81.81,0,0,1,1-.72,1,1,0,0,1,.65,1.19Zm6.56-13.25,1.17,1.45-.25.29-.26.28-.24.29-.25.3-.24.3-.23.3-.23.31-.23.31-.23.32-.22.32-.21.34-.21.33-.21.35-.2.35-.2.36-.2.36-.19.38-.18.38-.19.39-.17.4-.18.41-.17.42-.16.43-.16.45-.15.45-.15.46-.15.47-.13.49-.14.49-.13.52-.12.52-.12.53-1.63-.53.13-.57.13-.55.14-.54.14-.53.15-.52.15-.51.16-.49.17-.49.17-.47.18-.47.18-.45.19-.44.19-.44.19-.42.21-.42.2-.4L32,38l.22-.39.22-.38.23-.38.23-.36.23-.36.24-.35.24-.34.24-.34.25-.33.26-.33.25-.32.26-.31.27-.31.26-.31ZM44,27l-1.65-.36,1.43.87-.19.23-.2.23-.2.22-.2.22-.21.22-.2.22-.21.21-.22.21-.21.22-.22.21-.21.21-.22.2-.22.21-.22.21-.23.21-.89.82-.22.21-.22.21-.22.21-.23.21-.22.21-.22.21-.21.22-.22.21-.22.22-.21.22-.21.22-.21.22-.21.22-1.17-1.45.22-.24.23-.23.22-.23.22-.23.23-.23.22-.22.23-.22.23-.22.22-.22.23-.21.23-.22.22-.21.23-.21.89-.82.22-.21.21-.2.22-.2.21-.21.21-.2.21-.2.21-.21.2-.2.2-.2.19-.21.2-.2.18-.21.19-.2.18-.21.18-.21Zm-1.43-.88a.75.75,0,0,1,1.18,0,1.09,1.09,0,0,1,0,1.38Zm1.22,1.42-1.23-1.38-.22.51h0v.08h0v-.08h0v.08h0v-.08h0v.08h0v-.08h0v.07h0v-.08h0L44,27h0V27h0V27h0V27h0V27h0V27h0v.08h0V27h0v.08h0Zm.21-.51a.83.83,0,0,1-1,.79,1,1,0,0,1-.7-1.15Z" transform="translate(-2.31 -2.68)" style="fill:#3130bd"/><path d="M53.7,31.52h2v8.3h4v-8.3h2v8.3h1.36l-.13,4H61.1v-2.4H53.7Z" transform="translate(-2.31 -2.68)" style="fill:#3130bd"/><path d="M67.69,41.6a3.68,3.68,0,0,1-2.66-1A3.55,3.55,0,0,1,64,38v-.19a4.38,4.38,0,0,1,.43-2,3.15,3.15,0,0,1,1.21-1.36,3.42,3.42,0,0,1,1.81-.48,3,3,0,0,1,2.38,1,3.85,3.85,0,0,1,.88,2.72v.8H66a1.79,1.79,0,0,0,.57,1.16,1.74,1.74,0,0,0,1.23.44,2.11,2.11,0,0,0,1.78-.83l1,1.09a3.08,3.08,0,0,1-1.2,1A4,4,0,0,1,67.69,41.6Zm-.23-6.07a1.28,1.28,0,0,0-1,.4A2.1,2.1,0,0,0,66,37.07h2.75v-.16a1.42,1.42,0,0,0-.36-1A1.28,1.28,0,0,0,67.46,35.53Z" transform="translate(-2.31 -2.68)" style="fill:#3130bd"/><path d="M78.27,41.47h-2V38.62H73.83v2.85h-2v-7.4h2v3h2.46v-3h2Z" transform="translate(-2.31 -2.68)" style="fill:#3130bd"/><path d="M85.94,35.66H83.57v5.81h-2V35.66H79.25V34.07h6.69Z" transform="translate(-2.31 -2.68)" style="fill:#3130bd"/><path d="M93.59,37.84a4.43,4.43,0,0,1-.78,2.74,2.48,2.48,0,0,1-2.09,1,2.3,2.3,0,0,1-1.81-.77v3.48h-2V34.07h1.83l.07.73a2.3,2.3,0,0,1,1.87-.87,2.51,2.51,0,0,1,2.13,1,4.58,4.58,0,0,1,.75,2.79Zm-2-.15a2.88,2.88,0,0,0-.37-1.59,1.19,1.19,0,0,0-1.06-.56,1.3,1.3,0,0,0-1.28.71v3A1.31,1.31,0,0,0,90.2,40C91.15,40,91.62,39.24,91.62,37.69Z" transform="translate(-2.31 -2.68)" style="fill:#3130bd"/><path d="M98,37.7a4.28,4.28,0,0,1,.43-2,3.06,3.06,0,0,1,1.21-1.33,3.55,3.55,0,0,1,1.86-.48,3.38,3.38,0,0,1,2.44.92A3.72,3.72,0,0,1,105,37.34v.51a3.89,3.89,0,0,1-1,2.73,3.31,3.31,0,0,1-2.55,1,3.34,3.34,0,0,1-2.56-1,4,4,0,0,1-1-2.79Zm2,.15a2.74,2.74,0,0,0,.4,1.61,1.3,1.3,0,0,0,1.13.55,1.32,1.32,0,0,0,1.12-.54,3,3,0,0,0,.4-1.77,2.72,2.72,0,0,0-.4-1.6,1.31,1.31,0,0,0-1.13-.57,1.27,1.27,0,0,0-1.12.57A3,3,0,0,0,100,37.85Z" transform="translate(-2.31 -2.68)" style="fill:#3130bd"/><path d="M106.23,34.07h2v5.81h2.48V34.07h2v5.82h1.11l-.14,3.77h-1.84V41.47h-5.56Z" transform="translate(-2.31 -2.68)" style="fill:#3130bd"/><path d="M118.16,41.6a3.66,3.66,0,0,1-2.65-1,3.56,3.56,0,0,1-1-2.66v-.19a4.38,4.38,0,0,1,.43-2,3.17,3.17,0,0,1,1.22-1.36,3.41,3.41,0,0,1,1.8-.48,3.05,3.05,0,0,1,2.39,1,3.9,3.9,0,0,1,.87,2.72v.8h-4.71a1.85,1.85,0,0,0,.58,1.16,1.71,1.71,0,0,0,1.22.44,2.13,2.13,0,0,0,1.79-.83l1,1.09a3,3,0,0,1-1.21,1A4,4,0,0,1,118.16,41.6Zm-.22-6.07a1.27,1.27,0,0,0-1,.4,2.1,2.1,0,0,0-.47,1.14h2.75v-.16a1.42,1.42,0,0,0-.35-1A1.28,1.28,0,0,0,117.94,35.53Z" transform="translate(-2.31 -2.68)" style="fill:#3130bd"/><path d="M128.74,41.47h-2V38.62h-2.45v2.85h-2v-7.4h2v3h2.45v-3h2Z" transform="translate(-2.31 -2.68)" style="fill:#3130bd"/><path d="M133.17,38.74h-.79v2.73h-2v-7.4h2v2.78h.71l1.61-2.78h2.49l-2.42,3.52,2.65,3.88h-2.63Z" transform="translate(-2.31 -2.68)" style="fill:#3130bd"/><path d="M142.62,34.07h2v7.4h-2V36.9l-2.47,4.57h-2v-7.4h2v4.56Z" transform="translate(-2.31 -2.68)" style="fill:#3130bd"/><path d="M149.72,41.47v-7.4h3.09a4.26,4.26,0,0,1,2.32.53,1.74,1.74,0,0,1,.81,1.54,1.43,1.43,0,0,1-.34.92,2.13,2.13,0,0,1-1,.62,2.37,2.37,0,0,1,1.25.6,1.44,1.44,0,0,1,.45,1.08,1.8,1.8,0,0,1-.78,1.57,3.88,3.88,0,0,1-2.24.54Zm2-3.07v1.49h1.59c.7,0,1.05-.24,1.05-.73s-.33-.75-1-.76Zm0-1.33h1.22c.7,0,1-.23,1-.67a.59.59,0,0,0-.29-.57,1.61,1.61,0,0,0-.86-.17H151.7Z" transform="translate(-2.31 -2.68)" style="fill:#3130bd"/><path d="M160.7,37.7a4.28,4.28,0,0,1,.43-2,3.06,3.06,0,0,1,1.21-1.33,3.55,3.55,0,0,1,1.86-.48,3.38,3.38,0,0,1,2.44.92,3.72,3.72,0,0,1,1.06,2.49v.51a3.89,3.89,0,0,1-1,2.73,3.31,3.31,0,0,1-2.55,1,3.34,3.34,0,0,1-2.56-1,4,4,0,0,1-1-2.79Zm2,.15a2.82,2.82,0,0,0,.39,1.61,1.44,1.44,0,0,0,2.26,0,3,3,0,0,0,.4-1.77,2.72,2.72,0,0,0-.4-1.6,1.41,1.41,0,0,0-2.26,0A3.13,3.13,0,0,0,162.68,37.85Z" transform="translate(-2.31 -2.68)" style="fill:#3130bd"/><path d="M172.6,34.48a2.92,2.92,0,0,1,2.27,1,3.69,3.69,0,0,1,.84,2.56v.09a3.51,3.51,0,0,1-.94,2.57,3.39,3.39,0,0,1-2.54,1,3.28,3.28,0,0,1-2.55-1,4.1,4.1,0,0,1-.94-2.83v-.33a7.86,7.86,0,0,1,.84-3.91,3.73,3.73,0,0,1,2.5-1.78,3.35,3.35,0,0,0,1.13-.38.6.6,0,0,0,.25-.52h1.6a2.09,2.09,0,0,1-.58,1.61,4.26,4.26,0,0,1-2,.84,2.52,2.52,0,0,0-1.38.69,2.7,2.7,0,0,0-.68,1.44A3.1,3.1,0,0,1,172.6,34.48Zm-.38,1.6a1.4,1.4,0,0,0-1.11.47,2.42,2.42,0,0,0-.39,1.53,2.34,2.34,0,0,0,.39,1.45,1.36,1.36,0,0,0,1.12.49,1.33,1.33,0,0,0,1.11-.49,2.3,2.3,0,0,0,.4-1.43v-.16a2.1,2.1,0,0,0-.4-1.38A1.38,1.38,0,0,0,172.22,36.08Z" transform="translate(-2.31 -2.68)" style="fill:#3130bd"/><path d="M183.43,37.84a4.43,4.43,0,0,1-.78,2.74,2.48,2.48,0,0,1-2.09,1,2.29,2.29,0,0,1-1.81-.77v3.48h-2V34.07h1.84l.06.73a2.33,2.33,0,0,1,1.88-.87,2.48,2.48,0,0,1,2.12,1,4.51,4.51,0,0,1,.76,2.79Zm-2-.15a3,3,0,0,0-.37-1.59,1.19,1.19,0,0,0-1.06-.56,1.3,1.3,0,0,0-1.28.71v3A1.31,1.31,0,0,0,180,40C181,40,181.46,39.24,181.46,37.69Z" transform="translate(-2.31 -2.68)" style="fill:#3130bd"/><path d="M189,41.47a2.23,2.23,0,0,1-.2-.66,2.4,2.4,0,0,1-1.87.79,2.63,2.63,0,0,1-1.8-.62,2,2,0,0,1-.71-1.59,2.08,2.08,0,0,1,.87-1.8,4.26,4.26,0,0,1,2.52-.64h.91v-.42a1.18,1.18,0,0,0-.27-.82,1,1,0,0,0-.83-.31,1.17,1.17,0,0,0-.78.24.81.81,0,0,0-.28.65h-2a2,2,0,0,1,.4-1.19,2.57,2.57,0,0,1,1.12-.85,4.05,4.05,0,0,1,1.63-.32,3.19,3.19,0,0,1,2.16.7,2.36,2.36,0,0,1,.81,1.92v3.21a3.63,3.63,0,0,0,.29,1.59v.12Zm-1.64-1.38a1.67,1.67,0,0,0,.81-.19,1.26,1.26,0,0,0,.55-.52V38.1h-.74c-1,0-1.52.35-1.58,1v.12a.78.78,0,0,0,.26.6A1,1,0,0,0,187.31,40.09Z" transform="translate(-2.31 -2.68)" style="fill:#3130bd"/><path d="M196.05,36.25a.74.74,0,0,0-.26-.6,1.05,1.05,0,0,0-.72-.22,1.4,1.4,0,0,0-.8.21.63.63,0,0,0-.3.56h-2a2,2,0,0,1,.83-1.63,3.45,3.45,0,0,1,2.13-.63,4,4,0,0,1,2.25.56,1.85,1.85,0,0,1,.82,1.6,1.5,1.5,0,0,1-.3.9,2,2,0,0,1-.84.66,1.71,1.71,0,0,1,1.27,1.72,1.88,1.88,0,0,1-.88,1.62,4,4,0,0,1-2.32.6,3.68,3.68,0,0,1-2.21-.62,2,2,0,0,1-.87-1.7h2a.72.72,0,0,0,.33.61,1.55,1.55,0,0,0,.88.23,1.27,1.27,0,0,0,.82-.24.83.83,0,0,0,.29-.65.8.8,0,0,0-.28-.69,1.41,1.41,0,0,0-.84-.21H194V37.05h1.14C195.74,37,196.05,36.76,196.05,36.25Z" transform="translate(-2.31 -2.68)" style="fill:#3130bd"/><path d="M199.05,37.7a4.28,4.28,0,0,1,.43-2,3.06,3.06,0,0,1,1.21-1.33,3.55,3.55,0,0,1,1.86-.48,3.38,3.38,0,0,1,2.44.92,3.72,3.72,0,0,1,1.06,2.49v.51a3.89,3.89,0,0,1-.95,2.73,3.31,3.31,0,0,1-2.55,1,3.34,3.34,0,0,1-2.56-1,4,4,0,0,1-.95-2.79Zm2,.15a2.82,2.82,0,0,0,.39,1.61,1.44,1.44,0,0,0,2.26,0,3,3,0,0,0,.4-1.77,2.72,2.72,0,0,0-.4-1.6,1.41,1.41,0,0,0-2.26,0A3.13,3.13,0,0,0,201,37.85Z" transform="translate(-2.31 -2.68)" style="fill:#3130bd"/><path d="M207.41,41.47v-7.4h3.09a4.24,4.24,0,0,1,2.31.53,1.74,1.74,0,0,1,.81,1.54,1.38,1.38,0,0,1-.34.92,2.08,2.08,0,0,1-1,.62,2.33,2.33,0,0,1,1.25.6,1.45,1.45,0,0,1,.46,1.08,1.8,1.8,0,0,1-.78,1.57,3.94,3.94,0,0,1-2.25.54Zm2-3.07v1.49H211c.7,0,1.05-.24,1.05-.73s-.33-.75-1-.76Zm0-1.33h1.22c.7,0,1-.23,1-.67a.6.6,0,0,0-.28-.57,1.66,1.66,0,0,0-.86-.17h-1.12Z" transform="translate(-2.31 -2.68)" style="fill:#3130bd"/><path d="M219.49,41.47a2.23,2.23,0,0,1-.2-.66,2.39,2.39,0,0,1-1.86.79,2.64,2.64,0,0,1-1.81-.62,2,2,0,0,1-.71-1.59,2.08,2.08,0,0,1,.87-1.8A4.26,4.26,0,0,1,218.3,37h.91v-.42a1.18,1.18,0,0,0-.27-.82,1,1,0,0,0-.82-.31,1.18,1.18,0,0,0-.79.24.81.81,0,0,0-.28.65h-2a2,2,0,0,1,.39-1.19,2.63,2.63,0,0,1,1.12-.85,4.09,4.09,0,0,1,1.63-.32,3.23,3.23,0,0,1,2.17.7,2.38,2.38,0,0,1,.8,1.92v3.21a3.61,3.61,0,0,0,.3,1.59v.12Zm-1.63-1.38a1.66,1.66,0,0,0,.8-.19,1.26,1.26,0,0,0,.55-.52V38.1h-.74c-1,0-1.51.35-1.58,1v.12a.75.75,0,0,0,.26.6A1,1,0,0,0,217.86,40.09Z" transform="translate(-2.31 -2.68)" style="fill:#3130bd"/><path d="M229.12,41.47h-2V38.62h-2.45v2.85h-2v-7.4h2v3h2.45v-3h2Z" transform="translate(-2.31 -2.68)" style="fill:#3130bd"/><path d="M235.11,34.07h2v7.4h-2V36.9l-2.47,4.57h-2v-7.4h2v4.56Z" transform="translate(-2.31 -2.68)" style="fill:#3130bd"/><path d="M243.05,34.07h2v7.4h-2V36.9l-2.47,4.57h-2v-7.4h2v4.56Z" transform="translate(-2.31 -2.68)" style="fill:#3130bd"/><path d="M254.48,34.07h2v7.4h-2V36.9L252,41.47h-2v-7.4h2v4.56Z" transform="translate(-2.31 -2.68)" style="fill:#3130bd"/><path d="M266,39.14l1.94-5.07h2.47v7.4h-2V36.93l-1.77,4.54H265.3L263.56,37v4.47h-2v-7.4H264Z" transform="translate(-2.31 -2.68)" style="fill:#3130bd"/><path d="M275.5,41.6a3.64,3.64,0,0,1-2.65-1,3.56,3.56,0,0,1-1-2.66v-.19a4.38,4.38,0,0,1,.43-2,3.21,3.21,0,0,1,1.21-1.36,3.42,3.42,0,0,1,1.81-.48,3.07,3.07,0,0,1,2.39,1,3.9,3.9,0,0,1,.87,2.72v.8h-4.71a1.84,1.84,0,0,0,.57,1.16,1.75,1.75,0,0,0,1.23.44,2.11,2.11,0,0,0,1.78-.83l1,1.09a2.94,2.94,0,0,1-1.2,1A4,4,0,0,1,275.5,41.6Zm-.23-6.07a1.24,1.24,0,0,0-.95.4,2,2,0,0,0-.47,1.14h2.75v-.16a1.42,1.42,0,0,0-.36-1A1.27,1.27,0,0,0,275.27,35.53Z" transform="translate(-2.31 -2.68)" style="fill:#3130bd"/><path d="M285.72,35.66h-2.37v5.81h-2V35.66H279V34.07h6.68Z" transform="translate(-2.31 -2.68)" style="fill:#3130bd"/><path d="M286.21,37.7a4.41,4.41,0,0,1,.42-2,3.14,3.14,0,0,1,1.22-1.33,3.52,3.52,0,0,1,1.85-.48,3.36,3.36,0,0,1,2.44.92,3.63,3.63,0,0,1,1.06,2.49l0,.51a3.89,3.89,0,0,1-1,2.73,3.71,3.71,0,0,1-5.11,0,4,4,0,0,1-1-2.79Zm2,.15a2.82,2.82,0,0,0,.39,1.61,1.44,1.44,0,0,0,2.26,0,3,3,0,0,0,.4-1.77,2.72,2.72,0,0,0-.4-1.6,1.32,1.32,0,0,0-1.14-.57,1.29,1.29,0,0,0-1.12.57A3.13,3.13,0,0,0,288.19,37.85Z" transform="translate(-2.31 -2.68)" style="fill:#3130bd"/><path d="M294,39.88a4.05,4.05,0,0,0,.91-1.41,6.91,6.91,0,0,0,.27-2l0-2.42h5.45v5.81h1.06v3.81h-2V41.47h-4.39v2.22h-2V39.88Zm2.34,0h2.37V35.71h-1.54v.88A6.84,6.84,0,0,1,296.38,39.88Z" transform="translate(-2.31 -2.68)" style="fill:#3130bd"/><path d="M302.48,37.7a4.41,4.41,0,0,1,.42-2,3.14,3.14,0,0,1,1.22-1.33,3.52,3.52,0,0,1,1.85-.48,3.36,3.36,0,0,1,2.44.92,3.63,3.63,0,0,1,1.06,2.49l0,.51a3.89,3.89,0,0,1-.95,2.73,3.71,3.71,0,0,1-5.11,0,4,4,0,0,1-.95-2.79Zm2,.15a2.82,2.82,0,0,0,.39,1.61A1.31,1.31,0,0,0,306,40a1.33,1.33,0,0,0,1.12-.54,3,3,0,0,0,.4-1.77,2.72,2.72,0,0,0-.4-1.6,1.32,1.32,0,0,0-1.14-.57,1.29,1.29,0,0,0-1.12.57A3.13,3.13,0,0,0,304.46,37.85Z" transform="translate(-2.31 -2.68)" style="fill:#3130bd"/><path d="M310.83,41.47v-7.4h3.09a4.26,4.26,0,0,1,2.32.53,1.74,1.74,0,0,1,.81,1.54,1.43,1.43,0,0,1-.34.92,2.13,2.13,0,0,1-1,.62,2.3,2.3,0,0,1,1.24.6,1.41,1.41,0,0,1,.46,1.08,1.8,1.8,0,0,1-.78,1.57,3.89,3.89,0,0,1-2.25.54Zm2-3.07v1.49h1.59c.7,0,1.05-.24,1.05-.73s-.34-.75-1-.76Zm0-1.33H314c.7,0,1-.23,1-.67a.59.59,0,0,0-.29-.57,1.61,1.61,0,0,0-.86-.17h-1.11Z" transform="translate(-2.31 -2.68)" style="fill:#3130bd"/><path d="M321.81,37.7a4.28,4.28,0,0,1,.43-2,3.06,3.06,0,0,1,1.21-1.33,3.54,3.54,0,0,1,1.85-.48,3.38,3.38,0,0,1,2.45.92,3.66,3.66,0,0,1,1.05,2.49l0,.51a3.89,3.89,0,0,1-.95,2.73,3.71,3.71,0,0,1-5.11,0,4,4,0,0,1-.95-2.79Zm2,.15a2.82,2.82,0,0,0,.39,1.61,1.44,1.44,0,0,0,2.26,0,3,3,0,0,0,.4-1.77,2.72,2.72,0,0,0-.4-1.6,1.32,1.32,0,0,0-1.14-.57,1.29,1.29,0,0,0-1.12.57A3.13,3.13,0,0,0,323.79,37.85Z" transform="translate(-2.31 -2.68)" style="fill:#3130bd"/><path d="M333.71,34.48a2.92,2.92,0,0,1,2.27,1,3.69,3.69,0,0,1,.84,2.56v.09a3.51,3.51,0,0,1-.94,2.57,3.39,3.39,0,0,1-2.54,1,3.28,3.28,0,0,1-2.55-1,4.1,4.1,0,0,1-.94-2.83v-.33a7.86,7.86,0,0,1,.84-3.91,3.73,3.73,0,0,1,2.5-1.78,3.35,3.35,0,0,0,1.13-.38.6.6,0,0,0,.25-.52h1.6a2.09,2.09,0,0,1-.58,1.61,4.26,4.26,0,0,1-2,.84,2.52,2.52,0,0,0-1.38.69,2.7,2.7,0,0,0-.68,1.44A3.1,3.1,0,0,1,333.71,34.48Zm-.38,1.6a1.4,1.4,0,0,0-1.11.47,2.42,2.42,0,0,0-.39,1.53,2.34,2.34,0,0,0,.39,1.45,1.36,1.36,0,0,0,1.12.49,1.33,1.33,0,0,0,1.11-.49,2.3,2.3,0,0,0,.4-1.43v-.16a2,2,0,0,0-.41-1.38A1.35,1.35,0,0,0,333.33,36.08Z" transform="translate(-2.31 -2.68)" style="fill:#3130bd"/><path d="M340.77,38.67l1.36-4.6h2.12l-3,8.55-.16.39a2.27,2.27,0,0,1-2.19,1.45,3.41,3.41,0,0,1-.88-.13v-1.5h.3a1.54,1.54,0,0,0,.84-.18,1.11,1.11,0,0,0,.44-.56l.23-.61-2.59-7.42h2.12Z" transform="translate(-2.31 -2.68)" style="fill:#3130bd"/><path d="M351.27,41.47h-2V39.14a5.57,5.57,0,0,1-1,.11,3.85,3.85,0,0,1-2.52-.71,2.6,2.6,0,0,1-.86-2.08V34.07h2v2.39a1.21,1.21,0,0,0,.32.92,1.67,1.67,0,0,0,1.09.27,5.39,5.39,0,0,0,1-.11V34.07h2Z" transform="translate(-2.31 -2.68)" style="fill:#3130bd"/><path d="M356.19,41.6a3.64,3.64,0,0,1-2.65-1,3.56,3.56,0,0,1-1-2.66v-.19a4.38,4.38,0,0,1,.43-2,3.17,3.17,0,0,1,1.22-1.36,3.39,3.39,0,0,1,1.8-.48,3.07,3.07,0,0,1,2.39,1,3.9,3.9,0,0,1,.87,2.72v.8h-4.71a1.85,1.85,0,0,0,.58,1.16,1.71,1.71,0,0,0,1.22.44,2.1,2.1,0,0,0,1.78-.83l1,1.09a2.94,2.94,0,0,1-1.2,1A4,4,0,0,1,356.19,41.6ZM356,35.53a1.24,1.24,0,0,0-.95.4,2.1,2.1,0,0,0-.47,1.14h2.75v-.16a1.42,1.42,0,0,0-.36-1A1.27,1.27,0,0,0,356,35.53Z" transform="translate(-2.31 -2.68)" style="fill:#3130bd"/><path d="M366.77,41.47h-2V38.62h-2.45v2.85h-2v-7.4h2v3h2.45v-3h2Z" transform="translate(-2.31 -2.68)" style="fill:#3130bd"/><path d="M372.76,34.07h2v7.4h-2V36.9l-2.47,4.57h-2v-7.4h2v4.56Z" transform="translate(-2.31 -2.68)" style="fill:#3130bd"/><path d="M382.41,34.07v7.4h-2V38.91h-1.25l-1.42,2.56h-2l1.61-2.89a2.52,2.52,0,0,1-1-.84,2.06,2.06,0,0,1-.36-1.19,2.19,2.19,0,0,1,.83-1.76,3.5,3.5,0,0,1,2.23-.72Zm-3.32,3.46h1.35V35.66h-1.28a1.27,1.27,0,0,0-.86.28.85.85,0,0,0-.32.67.8.8,0,0,0,.31.65A1.19,1.19,0,0,0,379.09,37.53Z" transform="translate(-2.31 -2.68)" style="fill:#3130bd"/><path d="M61.6,59.15a3.5,3.5,0,0,1-1.19,2.53,4.12,4.12,0,0,1-2.81.92,3.76,3.76,0,0,1-3-1.28,5.3,5.3,0,0,1-1.09-3.54v-.61a6.08,6.08,0,0,1,.5-2.53A3.72,3.72,0,0,1,55.44,53a3.93,3.93,0,0,1,2.18-.59,4.09,4.09,0,0,1,2.78.92,3.81,3.81,0,0,1,1.22,2.59H59.56A2,2,0,0,0,59,54.5a2,2,0,0,0-1.4-.44,1.74,1.74,0,0,0-1.53.74,4,4,0,0,0-.52,2.27v.76a4.44,4.44,0,0,0,.48,2.35,1.72,1.72,0,0,0,1.55.75A2,2,0,0,0,59,60.5a1.91,1.91,0,0,0,.54-1.35Z" transform="translate(-2.31 -2.68)" style="fill:#3130bd"/><path d="M66.22,62.6a3.66,3.66,0,0,1-2.65-1,3.56,3.56,0,0,1-1-2.66v-.19a4.51,4.51,0,0,1,.43-2,3.23,3.23,0,0,1,1.22-1.36,3.41,3.41,0,0,1,1.8-.48,3.05,3.05,0,0,1,2.39,1,3.9,3.9,0,0,1,.88,2.72v.8H64.56a1.79,1.79,0,0,0,.57,1.16,1.71,1.71,0,0,0,1.22.44,2.13,2.13,0,0,0,1.79-.83l1,1.09a3,3,0,0,1-1.21,1A4,4,0,0,1,66.22,62.6ZM66,56.53a1.28,1.28,0,0,0-1,.4,2,2,0,0,0-.46,1.14h2.74v-.16a1.42,1.42,0,0,0-.35-1A1.28,1.28,0,0,0,66,56.53Z" transform="translate(-2.31 -2.68)" style="fill:#3130bd"/><path d="M72.21,55.07l.06.86a2.6,2.6,0,0,1,2.13-1,2.15,2.15,0,0,1,1.75.7,3.22,3.22,0,0,1,.59,2.06v4.78h-2V57.74a1.29,1.29,0,0,0-.27-.91,1.23,1.23,0,0,0-.91-.29,1.36,1.36,0,0,0-1.25.71v5.22h-2v-7.4Z" transform="translate(-2.31 -2.68)" style="fill:#3130bd"/><path d="M80.61,53.25v1.82h1.26v1.45H80.61v3.69a.91.91,0,0,0,.15.59.8.8,0,0,0,.6.18,3.42,3.42,0,0,0,.59,0v1.5a4,4,0,0,1-1.2.17,1.88,1.88,0,0,1-2.12-2.09v-4H77.55V55.07h1.08V53.25Z" transform="translate(-2.31 -2.68)" style="fill:#3130bd"/><path d="M86.38,62.6a3.68,3.68,0,0,1-2.66-1,3.56,3.56,0,0,1-1-2.66v-.19a4.51,4.51,0,0,1,.43-2,3.23,3.23,0,0,1,1.22-1.36,3.42,3.42,0,0,1,1.81-.48,3,3,0,0,1,2.38,1,3.85,3.85,0,0,1,.88,2.72v.8H84.71a1.79,1.79,0,0,0,.57,1.16A1.71,1.71,0,0,0,86.5,61a2.11,2.11,0,0,0,1.79-.83l1,1.09a3.08,3.08,0,0,1-1.2,1A4,4,0,0,1,86.38,62.6Zm-.23-6.07a1.28,1.28,0,0,0-1,.4,2.1,2.1,0,0,0-.46,1.14h2.75v-.16a1.42,1.42,0,0,0-.36-1A1.28,1.28,0,0,0,86.15,56.53Z" transform="translate(-2.31 -2.68)" style="fill:#3130bd"/><path d="M94.7,56.92a6.54,6.54,0,0,0-.71-.05,1.44,1.44,0,0,0-1.47.76v4.84h-2v-7.4h1.86l.06.88a1.81,1.81,0,0,1,1.64-1,2.06,2.06,0,0,1,.62.09Z" transform="translate(-2.31 -2.68)" style="fill:#3130bd"/><path d="M99.68,62.47V56.52h-1.1V55.07h1.1v-.63a2.5,2.5,0,0,1,.72-1.92,2.71,2.71,0,0,1,2-.7,4.66,4.66,0,0,1,1,.14l0,1.53a2.52,2.52,0,0,0-.6-.06q-1.11,0-1.11,1v.59h1.47v1.45h-1.47v5.95Z" transform="translate(-2.31 -2.68)" style="fill:#3130bd"/><path d="M103.85,58.7a4.41,4.41,0,0,1,.43-2,3.08,3.08,0,0,1,1.22-1.33,3.52,3.52,0,0,1,1.85-.48,3.36,3.36,0,0,1,2.44.92,3.72,3.72,0,0,1,1.06,2.49v.51a3.89,3.89,0,0,1-1,2.73,3.31,3.31,0,0,1-2.55,1,3.36,3.36,0,0,1-2.56-1,4,4,0,0,1-1-2.79Zm2,.15a2.74,2.74,0,0,0,.4,1.61,1.3,1.3,0,0,0,1.13.55,1.32,1.32,0,0,0,1.12-.54,3,3,0,0,0,.41-1.77,2.72,2.72,0,0,0-.41-1.6,1.3,1.3,0,0,0-1.13-.57,1.27,1.27,0,0,0-1.12.57A3,3,0,0,0,105.83,58.85Z" transform="translate(-2.31 -2.68)" style="fill:#3130bd"/><path d="M116.23,56.92a6.38,6.38,0,0,0-.71-.05,1.46,1.46,0,0,0-1.47.76v4.84h-2v-7.4h1.86L114,56a1.83,1.83,0,0,1,1.65-1,2,2,0,0,1,.61.09Z" transform="translate(-2.31 -2.68)" style="fill:#3130bd"/><path d="M124.08,62.6a3.66,3.66,0,0,1-2.65-1,3.56,3.56,0,0,1-1-2.66v-.19a4.38,4.38,0,0,1,.43-2,3.17,3.17,0,0,1,1.22-1.36,3.41,3.41,0,0,1,1.8-.48,3.05,3.05,0,0,1,2.39,1,3.9,3.9,0,0,1,.87,2.72v.8h-4.71a1.85,1.85,0,0,0,.58,1.16,1.71,1.71,0,0,0,1.22.44,2.13,2.13,0,0,0,1.79-.83l1,1.09a3,3,0,0,1-1.21,1A4,4,0,0,1,124.08,62.6Zm-.22-6.07a1.27,1.27,0,0,0-1,.4,2.1,2.1,0,0,0-.47,1.14h2.75v-.16a1.42,1.42,0,0,0-.35-1A1.28,1.28,0,0,0,123.86,56.53Z" transform="translate(-2.31 -2.68)" style="fill:#3130bd"/><path d="M127.94,58.72a4.44,4.44,0,0,1,.78-2.76,2.54,2.54,0,0,1,2.12-1,2.27,2.27,0,0,1,1.79.81V52h2v10.5h-1.78l-.1-.79a2.31,2.31,0,0,1-1.9.92,2.53,2.53,0,0,1-2.1-1A4.65,4.65,0,0,1,127.94,58.72Zm2,.14a2.92,2.92,0,0,0,.36,1.59,1.18,1.18,0,0,0,1.06.56,1.32,1.32,0,0,0,1.29-.78V57.31a1.32,1.32,0,0,0-1.28-.77C130.4,56.54,129.92,57.31,129.92,58.86Z" transform="translate(-2.31 -2.68)" style="fill:#3130bd"/><path d="M140.57,61.72a2.48,2.48,0,0,1-2,.88,2.33,2.33,0,0,1-1.82-.68,2.89,2.89,0,0,1-.64-2V55.07h2v4.78c0,.77.35,1.16,1.05,1.16a1.43,1.43,0,0,0,1.38-.7V55.07h2v7.4h-1.85Z" transform="translate(-2.31 -2.68)" style="fill:#3130bd"/><path d="M147.05,61a1.3,1.3,0,0,0,.89-.3,1.06,1.06,0,0,0,.36-.8h1.85a2.59,2.59,0,0,1-.41,1.38,2.69,2.69,0,0,1-1.11,1,3.41,3.41,0,0,1-1.54.34,3.23,3.23,0,0,1-2.51-1,4,4,0,0,1-.91-2.79v-.13a3.93,3.93,0,0,1,.91-2.73,3.15,3.15,0,0,1,2.49-1,3.07,3.07,0,0,1,2.22.8,2.78,2.78,0,0,1,.86,2.1H148.3a1.31,1.31,0,0,0-.36-.93A1.31,1.31,0,0,0,146,57a2.94,2.94,0,0,0-.35,1.63v.2a3,3,0,0,0,.35,1.64A1.19,1.19,0,0,0,147.05,61Z" transform="translate(-2.31 -2.68)" style="fill:#3130bd"/><path d="M155.56,62.47a2.23,2.23,0,0,1-.2-.66,2.39,2.39,0,0,1-1.86.79,2.64,2.64,0,0,1-1.81-.62,2,2,0,0,1-.71-1.59,2.08,2.08,0,0,1,.87-1.8,4.26,4.26,0,0,1,2.52-.64h.91v-.42a1.18,1.18,0,0,0-.27-.82,1,1,0,0,0-.82-.31,1.18,1.18,0,0,0-.79.24.81.81,0,0,0-.28.65h-2a2,2,0,0,1,.39-1.19,2.63,2.63,0,0,1,1.12-.85,4.09,4.09,0,0,1,1.63-.32,3.23,3.23,0,0,1,2.17.7,2.38,2.38,0,0,1,.8,1.92v3.21a3.61,3.61,0,0,0,.3,1.59v.12Zm-1.63-1.38a1.66,1.66,0,0,0,.8-.19,1.26,1.26,0,0,0,.55-.52V59.1h-.74c-1,0-1.51.35-1.58,1v.12a.75.75,0,0,0,.26.6A1,1,0,0,0,153.93,61.09Z" transform="translate(-2.31 -2.68)" style="fill:#3130bd"/><path d="M161.15,53.25v1.82h1.26v1.45h-1.26v3.69a.91.91,0,0,0,.15.59.81.81,0,0,0,.61.18,3.39,3.39,0,0,0,.58,0v1.5a4,4,0,0,1-1.2.17,1.88,1.88,0,0,1-2.12-2.09v-4h-1.08V55.07h1.08V53.25Z" transform="translate(-2.31 -2.68)" style="fill:#3130bd"/><path d="M165.6,62.47h-2v-7.4h2Zm-2.1-9.31a1,1,0,0,1,.29-.73,1.1,1.1,0,0,1,.82-.29,1.08,1.08,0,0,1,.8.29,1,1,0,0,1,.3.73,1,1,0,0,1-.3.74,1.3,1.3,0,0,1-1.61,0A1,1,0,0,1,163.5,53.16Z" transform="translate(-2.31 -2.68)" style="fill:#3130bd"/><path d="M166.92,58.7a4.28,4.28,0,0,1,.43-2,3.06,3.06,0,0,1,1.21-1.33,3.55,3.55,0,0,1,1.86-.48,3.38,3.38,0,0,1,2.44.92,3.72,3.72,0,0,1,1.06,2.49v.51a3.89,3.89,0,0,1-1,2.73,3.31,3.31,0,0,1-2.55,1,3.34,3.34,0,0,1-2.56-1,4,4,0,0,1-1-2.79Zm2,.15a2.74,2.74,0,0,0,.4,1.61,1.3,1.3,0,0,0,1.13.55,1.32,1.32,0,0,0,1.12-.54,3,3,0,0,0,.4-1.77,2.72,2.72,0,0,0-.4-1.6,1.31,1.31,0,0,0-1.13-.57,1.27,1.27,0,0,0-1.12.57A3,3,0,0,0,168.9,58.85Z" transform="translate(-2.31 -2.68)" style="fill:#3130bd"/><path d="M177,55.07l.07.86a2.58,2.58,0,0,1,2.12-1,2.14,2.14,0,0,1,1.75.7,3.16,3.16,0,0,1,.59,2.06v4.78h-2V57.74a1.29,1.29,0,0,0-.27-.91,1.21,1.21,0,0,0-.91-.29,1.37,1.37,0,0,0-1.25.71v5.22h-2v-7.4Z" transform="translate(-2.31 -2.68)" style="fill:#3130bd"/><path d="M187.28,62.47a2.23,2.23,0,0,1-.2-.66,2.39,2.39,0,0,1-1.86.79,2.64,2.64,0,0,1-1.81-.62,2,2,0,0,1-.71-1.59,2.08,2.08,0,0,1,.87-1.8,4.26,4.26,0,0,1,2.52-.64H187v-.42a1.18,1.18,0,0,0-.27-.82,1,1,0,0,0-.82-.31,1.18,1.18,0,0,0-.79.24.81.81,0,0,0-.28.65h-2a2,2,0,0,1,.4-1.19,2.63,2.63,0,0,1,1.12-.85,4.05,4.05,0,0,1,1.63-.32,3.23,3.23,0,0,1,2.17.7,2.38,2.38,0,0,1,.8,1.92v3.21a3.61,3.61,0,0,0,.3,1.59v.12Zm-1.63-1.38a1.66,1.66,0,0,0,.8-.19,1.26,1.26,0,0,0,.55-.52V59.1h-.74c-1,0-1.51.35-1.58,1v.12a.75.75,0,0,0,.26.6A1,1,0,0,0,185.65,61.09Z" transform="translate(-2.31 -2.68)" style="fill:#3130bd"/><path d="M192.59,62.47h-2V52h2Z" transform="translate(-2.31 -2.68)" style="fill:#3130bd"/><path d="M202,62.47a2.23,2.23,0,0,1-.2-.66,2.39,2.39,0,0,1-1.86.79,2.64,2.64,0,0,1-1.81-.62,2,2,0,0,1-.71-1.59,2.08,2.08,0,0,1,.87-1.8A4.26,4.26,0,0,1,200.8,58h.91v-.42a1.18,1.18,0,0,0-.27-.82,1,1,0,0,0-.82-.31,1.18,1.18,0,0,0-.79.24.81.81,0,0,0-.28.65h-2A2,2,0,0,1,198,56.1a2.63,2.63,0,0,1,1.12-.85,4.09,4.09,0,0,1,1.63-.32,3.23,3.23,0,0,1,2.17.7,2.38,2.38,0,0,1,.8,1.92v3.21a3.61,3.61,0,0,0,.3,1.59v.12Zm-1.63-1.38a1.66,1.66,0,0,0,.8-.19,1.26,1.26,0,0,0,.55-.52V59.1H201c-1,0-1.51.35-1.58,1v.12a.75.75,0,0,0,.26.6A1,1,0,0,0,200.36,61.09Z" transform="translate(-2.31 -2.68)" style="fill:#3130bd"/><path d="M209.22,60.42a.61.61,0,0,0-.37-.56,3.92,3.92,0,0,0-1.14-.38c-1.76-.37-2.64-1.12-2.64-2.24a2,2,0,0,1,.81-1.64,3.32,3.32,0,0,1,2.14-.67,3.55,3.55,0,0,1,2.25.67,2.09,2.09,0,0,1,.85,1.72h-2a1,1,0,0,0-.27-.7,1.43,1.43,0,0,0-1.63,0,.71.71,0,0,0-.27.57.62.62,0,0,0,.31.54,3.45,3.45,0,0,0,1.05.34,9,9,0,0,1,1.24.33,2.05,2.05,0,0,1,1.57,2,1.93,1.93,0,0,1-.87,1.64,3.73,3.73,0,0,1-2.24.62,4,4,0,0,1-1.66-.32,2.83,2.83,0,0,1-1.12-.91,2.1,2.1,0,0,1-.41-1.25h1.87a1,1,0,0,0,.39.8,1.51,1.51,0,0,0,1,.28,1.42,1.42,0,0,0,.85-.21A.66.66,0,0,0,209.22,60.42Z" transform="translate(-2.31 -2.68)" style="fill:#3130bd"/><path d="M216.42,60.42a.61.61,0,0,0-.36-.56,4,4,0,0,0-1.15-.38c-1.76-.37-2.64-1.12-2.64-2.24a2,2,0,0,1,.82-1.64,3.3,3.3,0,0,1,2.14-.67,3.54,3.54,0,0,1,2.24.67,2.06,2.06,0,0,1,.85,1.72h-2a.94.94,0,0,0-.28-.7,1.16,1.16,0,0,0-.85-.28,1.18,1.18,0,0,0-.77.23.69.69,0,0,0-.28.57.65.65,0,0,0,.31.54,3.45,3.45,0,0,0,1.05.34,9.2,9.2,0,0,1,1.25.33,2.05,2.05,0,0,1,1.56,2,1.93,1.93,0,0,1-.87,1.64,3.69,3.69,0,0,1-2.24.62,3.92,3.92,0,0,1-1.65-.32,2.87,2.87,0,0,1-1.13-.91,2.17,2.17,0,0,1-.41-1.25h1.87a1,1,0,0,0,.39.8,1.53,1.53,0,0,0,1,.28,1.45,1.45,0,0,0,.86-.21A.68.68,0,0,0,216.42,60.42Z" transform="translate(-2.31 -2.68)" style="fill:#3130bd"/><path d="M223,62.6a3.68,3.68,0,0,1-2.66-1,3.56,3.56,0,0,1-1-2.66v-.19a4.38,4.38,0,0,1,.44-2A3.15,3.15,0,0,1,221,55.41a3.42,3.42,0,0,1,1.81-.48,3,3,0,0,1,2.38,1,3.85,3.85,0,0,1,.88,2.72v.8h-4.71a1.79,1.79,0,0,0,.57,1.16,1.74,1.74,0,0,0,1.23.44,2.11,2.11,0,0,0,1.78-.83l1,1.09a3.08,3.08,0,0,1-1.2,1A4,4,0,0,1,223,62.6Zm-.23-6.07a1.28,1.28,0,0,0-1,.4,2.1,2.1,0,0,0-.46,1.14h2.75v-.16a1.42,1.42,0,0,0-.36-1A1.28,1.28,0,0,0,222.8,56.53Z" transform="translate(-2.31 -2.68)" style="fill:#3130bd"/><path d="M231.2,60.42a.61.61,0,0,0-.36-.56,4,4,0,0,0-1.15-.38c-1.76-.37-2.64-1.12-2.64-2.24a2,2,0,0,1,.82-1.64,3.29,3.29,0,0,1,2.13-.67,3.55,3.55,0,0,1,2.25.67,2.06,2.06,0,0,1,.85,1.72h-2a1,1,0,0,0-.28-.7,1.16,1.16,0,0,0-.85-.28,1.18,1.18,0,0,0-.77.23.69.69,0,0,0-.28.57.62.62,0,0,0,.31.54,3.45,3.45,0,0,0,1.05.34,9.62,9.62,0,0,1,1.25.33,2.05,2.05,0,0,1,1.56,2,1.93,1.93,0,0,1-.87,1.64,3.69,3.69,0,0,1-2.24.62,3.92,3.92,0,0,1-1.65-.32,2.87,2.87,0,0,1-1.13-.91,2.17,2.17,0,0,1-.41-1.25h1.87a1,1,0,0,0,.39.8,1.53,1.53,0,0,0,1,.28,1.45,1.45,0,0,0,.86-.21A.68.68,0,0,0,231.2,60.42Z" transform="translate(-2.31 -2.68)" style="fill:#3130bd"/><path d="M238.41,60.42a.61.61,0,0,0-.37-.56,3.92,3.92,0,0,0-1.14-.38c-1.76-.37-2.64-1.12-2.64-2.24a2,2,0,0,1,.81-1.64,3.32,3.32,0,0,1,2.14-.67,3.55,3.55,0,0,1,2.25.67,2.09,2.09,0,0,1,.85,1.72h-2a1,1,0,0,0-.27-.7,1.43,1.43,0,0,0-1.63,0,.71.71,0,0,0-.27.57.63.63,0,0,0,.3.54,3.53,3.53,0,0,0,1.06.34,9.43,9.43,0,0,1,1.24.33,2.05,2.05,0,0,1,1.57,2,1.93,1.93,0,0,1-.87,1.64,3.73,3.73,0,0,1-2.24.62,4,4,0,0,1-1.66-.32,2.94,2.94,0,0,1-1.13-.91,2.17,2.17,0,0,1-.41-1.25h1.88a1,1,0,0,0,.39.8,1.51,1.51,0,0,0,1,.28,1.42,1.42,0,0,0,.85-.21A.66.66,0,0,0,238.41,60.42Z" transform="translate(-2.31 -2.68)" style="fill:#3130bd"/><path d="M243.46,55.07l.06.83a2.6,2.6,0,0,1,2.13-1,2,2,0,0,1,2,1.13,2.55,2.55,0,0,1,2.22-1.13,2.2,2.2,0,0,1,1.79.71,3.21,3.21,0,0,1,.59,2.1v4.73h-2V57.75a1.39,1.39,0,0,0-.25-.91,1.06,1.06,0,0,0-.87-.3,1.23,1.23,0,0,0-1.23.85v5.08h-2V57.76a1.38,1.38,0,0,0-.25-.93,1.11,1.11,0,0,0-.86-.29,1.28,1.28,0,0,0-1.22.7v5.23h-2v-7.4Z" transform="translate(-2.31 -2.68)" style="fill:#3130bd"/><path d="M257.14,62.6a3.68,3.68,0,0,1-2.66-1,3.59,3.59,0,0,1-1-2.66v-.19a4.38,4.38,0,0,1,.43-2,3.15,3.15,0,0,1,1.21-1.36,3.42,3.42,0,0,1,1.81-.48,3,3,0,0,1,2.38,1,3.85,3.85,0,0,1,.88,2.72v.8h-4.71a1.79,1.79,0,0,0,.57,1.16,1.74,1.74,0,0,0,1.23.44,2.11,2.11,0,0,0,1.78-.83l1,1.09a3,3,0,0,1-1.2,1A4,4,0,0,1,257.14,62.6Zm-.23-6.07a1.28,1.28,0,0,0-1,.4,2.1,2.1,0,0,0-.46,1.14h2.75v-.16a1.42,1.42,0,0,0-.36-1A1.28,1.28,0,0,0,256.91,56.53Z" transform="translate(-2.31 -2.68)" style="fill:#3130bd"/><path d="M263.13,55.07l.06.86a2.58,2.58,0,0,1,2.12-1,2.14,2.14,0,0,1,1.75.7,3.16,3.16,0,0,1,.59,2.06v4.78h-2V57.74a1.29,1.29,0,0,0-.27-.91,1.21,1.21,0,0,0-.91-.29,1.37,1.37,0,0,0-1.25.71v5.22h-2v-7.4Z" transform="translate(-2.31 -2.68)" style="fill:#3130bd"/><path d="M271.52,53.25v1.82h1.26v1.45h-1.26v3.69a.85.85,0,0,0,.16.59.77.77,0,0,0,.6.18,3.3,3.3,0,0,0,.58,0v1.5a4,4,0,0,1-1.2.17,1.88,1.88,0,0,1-2.12-2.09v-4h-1.08V55.07h1.08V53.25Z" transform="translate(-2.31 -2.68)" style="fill:#3130bd"/><path d="M281.66,62.47a2.23,2.23,0,0,1-.2-.66,2.4,2.4,0,0,1-1.87.79,2.63,2.63,0,0,1-1.8-.62,2,2,0,0,1-.71-1.59,2.08,2.08,0,0,1,.87-1.8,4.26,4.26,0,0,1,2.52-.64h.91v-.42a1.18,1.18,0,0,0-.27-.82,1,1,0,0,0-.83-.31,1.17,1.17,0,0,0-.78.24.81.81,0,0,0-.28.65h-2a2,2,0,0,1,.4-1.19,2.57,2.57,0,0,1,1.12-.85,4,4,0,0,1,1.63-.32,3.19,3.19,0,0,1,2.16.7,2.36,2.36,0,0,1,.81,1.92v3.21a3.49,3.49,0,0,0,.29,1.59v.12ZM280,61.09a1.7,1.7,0,0,0,.81-.19,1.26,1.26,0,0,0,.55-.52V59.1h-.74c-1,0-1.52.35-1.58,1v.12a.78.78,0,0,0,.26.6A1,1,0,0,0,280,61.09Z" transform="translate(-2.31 -2.68)" style="fill:#3130bd"/><path d="M286.7,55.07l.06.86a2.58,2.58,0,0,1,2.12-1,2.14,2.14,0,0,1,1.75.7,3.16,3.16,0,0,1,.59,2.06v4.78h-2V57.74a1.29,1.29,0,0,0-.28-.91,1.21,1.21,0,0,0-.91-.29,1.37,1.37,0,0,0-1.25.71v5.22h-2v-7.4Z" transform="translate(-2.31 -2.68)" style="fill:#3130bd"/><path d="M292.42,58.72a4.43,4.43,0,0,1,.77-2.76,2.54,2.54,0,0,1,2.13-1,2.25,2.25,0,0,1,1.78.81V52h2v10.5H297.3l-.1-.79a2.3,2.3,0,0,1-1.9.92,2.53,2.53,0,0,1-2.1-1A4.65,4.65,0,0,1,292.42,58.72Zm2,.14a2.92,2.92,0,0,0,.36,1.59,1.21,1.21,0,0,0,1.06.56,1.32,1.32,0,0,0,1.29-.78V57.31a1.31,1.31,0,0,0-1.28-.77C294.87,56.54,294.39,57.31,294.39,58.86Z" transform="translate(-2.31 -2.68)" style="fill:#3130bd"/><path d="M306.46,53.25v1.82h1.27v1.45h-1.27v3.69a.91.91,0,0,0,.16.59.8.8,0,0,0,.6.18,3.21,3.21,0,0,0,.58,0v1.5a3.94,3.94,0,0,1-1.19.17,1.88,1.88,0,0,1-2.12-2.09v-4h-1.08V55.07h1.08V53.25Z" transform="translate(-2.31 -2.68)" style="fill:#3130bd"/><path d="M312.23,62.6a3.67,3.67,0,0,1-2.65-1,3.56,3.56,0,0,1-1-2.66v-.19a4.51,4.51,0,0,1,.43-2,3.23,3.23,0,0,1,1.22-1.36,3.42,3.42,0,0,1,1.81-.48,3,3,0,0,1,2.38,1,3.9,3.9,0,0,1,.88,2.72v.8h-4.71a1.79,1.79,0,0,0,.57,1.16,1.71,1.71,0,0,0,1.22.44,2.11,2.11,0,0,0,1.79-.83l1,1.09a3.08,3.08,0,0,1-1.2,1A4.05,4.05,0,0,1,312.23,62.6ZM312,56.53a1.28,1.28,0,0,0-1,.4,2.1,2.1,0,0,0-.46,1.14h2.75v-.16a1.42,1.42,0,0,0-.36-1A1.28,1.28,0,0,0,312,56.53Z" transform="translate(-2.31 -2.68)" style="fill:#3130bd"/><path d="M320.69,62.47a2.23,2.23,0,0,1-.2-.66,2.39,2.39,0,0,1-1.86.79,2.64,2.64,0,0,1-1.81-.62,2,2,0,0,1-.71-1.59,2.08,2.08,0,0,1,.87-1.8A4.26,4.26,0,0,1,319.5,58h.91v-.42a1.18,1.18,0,0,0-.27-.82,1,1,0,0,0-.82-.31,1.18,1.18,0,0,0-.79.24.81.81,0,0,0-.28.65h-2a2,2,0,0,1,.4-1.19,2.63,2.63,0,0,1,1.12-.85,4.09,4.09,0,0,1,1.63-.32,3.23,3.23,0,0,1,2.17.7,2.38,2.38,0,0,1,.8,1.92v3.21a3.61,3.61,0,0,0,.3,1.59v.12Zm-1.63-1.38a1.66,1.66,0,0,0,.8-.19,1.26,1.26,0,0,0,.55-.52V59.1h-.74c-1,0-1.51.35-1.58,1v.12a.75.75,0,0,0,.26.6A1,1,0,0,0,319.06,61.09Z" transform="translate(-2.31 -2.68)" style="fill:#3130bd"/><path d="M327,61a1.31,1.31,0,0,0,.89-.3,1.08,1.08,0,0,0,.35-.8h1.85a2.51,2.51,0,0,1-.41,1.38,2.72,2.72,0,0,1-1.1,1,3.46,3.46,0,0,1-1.55.34,3.2,3.2,0,0,1-2.5-1,4,4,0,0,1-.92-2.79v-.13a4,4,0,0,1,.91-2.73,3.18,3.18,0,0,1,2.5-1,3.1,3.1,0,0,1,2.22.8,2.77,2.77,0,0,1,.85,2.1h-1.85a1.34,1.34,0,0,0-.35-.93,1.2,1.2,0,0,0-.91-.37,1.18,1.18,0,0,0-1,.51,2.86,2.86,0,0,0-.35,1.63v.2a2.87,2.87,0,0,0,.35,1.64A1.18,1.18,0,0,0,327,61Z" transform="translate(-2.31 -2.68)" style="fill:#3130bd"/><path d="M333.14,55.88a2.46,2.46,0,0,1,2-1c1.61,0,2.42.94,2.44,2.8v4.74h-2V57.79a1.37,1.37,0,0,0-.27-.94,1.17,1.17,0,0,0-.91-.31,1.34,1.34,0,0,0-1.26.67v5.26h-2V52h2Z" transform="translate(-2.31 -2.68)" style="fill:#3130bd"/><path d="M341.13,62.47h-2v-7.4h2ZM339,53.16a1,1,0,0,1,.3-.73,1.09,1.09,0,0,1,.81-.29,1.1,1.1,0,0,1,.81.29,1,1,0,0,1,.3.73,1,1,0,0,1-.31.74,1.12,1.12,0,0,1-.8.28,1.16,1.16,0,0,1-.81-.28A1,1,0,0,1,339,53.16Z" transform="translate(-2.31 -2.68)" style="fill:#3130bd"/><path d="M344.58,55.07l.06.86a2.6,2.6,0,0,1,2.13-1,2.15,2.15,0,0,1,1.75.7,3.22,3.22,0,0,1,.59,2.06v4.78h-2V57.74a1.29,1.29,0,0,0-.27-.91,1.23,1.23,0,0,0-.91-.29,1.36,1.36,0,0,0-1.25.71v5.22h-2v-7.4Z" transform="translate(-2.31 -2.68)" style="fill:#3130bd"/><path d="M350.32,58.72a4.37,4.37,0,0,1,.81-2.75,2.64,2.64,0,0,1,2.19-1,2.29,2.29,0,0,1,1.89.84l.08-.7h1.8v7.15a3.11,3.11,0,0,1-.45,1.69A2.75,2.75,0,0,1,355.4,65a4.33,4.33,0,0,1-1.87.38,4,4,0,0,1-1.59-.33,2.74,2.74,0,0,1-1.16-.83l.87-1.2a2.31,2.31,0,0,0,1.79.82,1.71,1.71,0,0,0,1.23-.42,1.58,1.58,0,0,0,.43-1.19v-.4a2.25,2.25,0,0,1-1.8.77,2.65,2.65,0,0,1-2.16-1,4.41,4.41,0,0,1-.82-2.77Zm2,.14a2.7,2.7,0,0,0,.4,1.58,1.29,1.29,0,0,0,1.11.57,1.38,1.38,0,0,0,1.29-.68V57.22a1.37,1.37,0,0,0-1.28-.68,1.33,1.33,0,0,0-1.12.58A3.07,3.07,0,0,0,352.3,58.86Z" transform="translate(-2.31 -2.68)" style="fill:#3130bd"/><path d="M364,55.07l.06.83a2.6,2.6,0,0,1,2.13-1,2,2,0,0,1,2,1.13,2.55,2.55,0,0,1,2.22-1.13,2.2,2.2,0,0,1,1.79.71,3.21,3.21,0,0,1,.59,2.1v4.73h-2V57.75a1.39,1.39,0,0,0-.25-.91,1.06,1.06,0,0,0-.87-.3,1.23,1.23,0,0,0-1.23.85v5.08h-2V57.76a1.38,1.38,0,0,0-.25-.93,1.11,1.11,0,0,0-.86-.29,1.28,1.28,0,0,0-1.22.7v5.23h-2v-7.4Z" transform="translate(-2.31 -2.68)" style="fill:#3130bd"/><path d="M377.63,62.6a3.68,3.68,0,0,1-2.66-1A3.59,3.59,0,0,1,374,59v-.19a4.38,4.38,0,0,1,.43-2,3.15,3.15,0,0,1,1.21-1.36,3.42,3.42,0,0,1,1.81-.48,3,3,0,0,1,2.38,1,3.85,3.85,0,0,1,.88,2.72v.8H376a1.79,1.79,0,0,0,.57,1.16,1.74,1.74,0,0,0,1.23.44,2.11,2.11,0,0,0,1.78-.83l1,1.09a3,3,0,0,1-1.2,1A4,4,0,0,1,377.63,62.6Zm-.23-6.07a1.28,1.28,0,0,0-1,.4,2.1,2.1,0,0,0-.46,1.14h2.75v-.16a1.42,1.42,0,0,0-.36-1A1.28,1.28,0,0,0,377.4,56.53Z" transform="translate(-2.31 -2.68)" style="fill:#3130bd"/><path d="M384.16,53.25v1.82h1.27v1.45h-1.27v3.69a.85.85,0,0,0,.16.59.77.77,0,0,0,.6.18,3.3,3.3,0,0,0,.58,0v1.5a4,4,0,0,1-1.19.17,1.88,1.88,0,0,1-2.12-2.09v-4h-1.08V55.07h1.08V53.25Z" transform="translate(-2.31 -2.68)" style="fill:#3130bd"/><path d="M388.46,55.88a2.46,2.46,0,0,1,2-1c1.6,0,2.42.94,2.44,2.8v4.74h-2V57.79a1.37,1.37,0,0,0-.28-.94,1.14,1.14,0,0,0-.91-.31,1.32,1.32,0,0,0-1.25.67v5.26h-2V52h2Z" transform="translate(-2.31 -2.68)" style="fill:#3130bd"/><path d="M394.05,58.7a4.41,4.41,0,0,1,.43-2,3.12,3.12,0,0,1,1.21-1.33,3.58,3.58,0,0,1,1.86-.48,3.36,3.36,0,0,1,2.44.92,3.72,3.72,0,0,1,1.06,2.49v.51a3.89,3.89,0,0,1-.95,2.73,3.31,3.31,0,0,1-2.55,1,3.34,3.34,0,0,1-2.56-1,4,4,0,0,1-.95-2.79Zm2,.15a2.74,2.74,0,0,0,.4,1.61,1.3,1.3,0,0,0,1.13.55,1.32,1.32,0,0,0,1.12-.54,3,3,0,0,0,.41-1.77,2.72,2.72,0,0,0-.41-1.6,1.31,1.31,0,0,0-1.13-.57,1.27,1.27,0,0,0-1.12.57A3,3,0,0,0,396,58.85Z" transform="translate(-2.31 -2.68)" style="fill:#3130bd"/><path d="M402,58.72a4.5,4.5,0,0,1,.77-2.76,2.54,2.54,0,0,1,2.13-1,2.25,2.25,0,0,1,1.78.81V52h2v10.5h-1.78l-.1-.79a2.3,2.3,0,0,1-1.9.92,2.5,2.5,0,0,1-2.09-1A4.59,4.59,0,0,1,402,58.72Zm2,.14a2.92,2.92,0,0,0,.36,1.59,1.18,1.18,0,0,0,1.05.56,1.32,1.32,0,0,0,1.29-.78V57.31a1.3,1.3,0,0,0-1.28-.77C404.42,56.54,404,57.31,404,58.86Z" transform="translate(-2.31 -2.68)" style="fill:#3130bd"/><path d="M414.17,60.42a.61.61,0,0,0-.36-.56,4,4,0,0,0-1.15-.38c-1.76-.37-2.64-1.12-2.64-2.24a2,2,0,0,1,.82-1.64,3.3,3.3,0,0,1,2.14-.67,3.54,3.54,0,0,1,2.24.67,2.06,2.06,0,0,1,.85,1.72h-2a.94.94,0,0,0-.28-.7,1.16,1.16,0,0,0-.85-.28,1.18,1.18,0,0,0-.77.23.69.69,0,0,0-.28.57.65.65,0,0,0,.31.54,3.45,3.45,0,0,0,1,.34,9.2,9.2,0,0,1,1.25.33,2.05,2.05,0,0,1,1.56,2,1.93,1.93,0,0,1-.87,1.64,3.69,3.69,0,0,1-2.24.62,3.92,3.92,0,0,1-1.65-.32,2.87,2.87,0,0,1-1.13-.91,2.17,2.17,0,0,1-.41-1.25h1.87a1,1,0,0,0,.39.8,1.53,1.53,0,0,0,1,.28,1.45,1.45,0,0,0,.86-.21A.68.68,0,0,0,414.17,60.42Z" transform="translate(-2.31 -2.68)" style="fill:#3130bd"/><path d="M60.28,12.18H55.84V14.1h1.6a4.2,4.2,0,0,1,2.78.86,2.8,2.8,0,0,1,1,2.29,2.94,2.94,0,0,1-1,2.33,4.12,4.12,0,0,1-2.72.89H53.77V10.52h6.51Zm-4.44,3.58v3.06h1.63a1.74,1.74,0,0,0,1.25-.43,1.48,1.48,0,0,0,.48-1.16,1.3,1.3,0,0,0-.46-1.06,1.78,1.78,0,0,0-1.22-.41Z" transform="translate(-2.31 -2.68)" style="fill:#3130bd"/><path d="M66.89,13.07h2v7.4h-2V15.9l-2.47,4.57h-2v-7.4h2v4.56Z" transform="translate(-2.31 -2.68)" style="fill:#3130bd"/><path d="M76.81,13.07v7.4h-2v-5.8H73.09L73,17a5.2,5.2,0,0,1-.72,2.66,2.12,2.12,0,0,1-1.79.86h-.67l0-1.61.25,0a.92.92,0,0,0,.78-.63,6.59,6.59,0,0,0,.3-2l.14-3.14Z" transform="translate(-2.31 -2.68)" style="fill:#3130bd"/><path d="M82.79,13.07h2v7.4h-2V15.9l-2.47,4.57h-2v-7.4h2v4.56Z" transform="translate(-2.31 -2.68)" style="fill:#3130bd"/><path d="M90.78,18.14l1.94-5.07h2.47v7.4h-2V15.93l-1.77,4.54H90.12L88.38,16v4.47h-2v-7.4h2.45Z" transform="translate(-2.31 -2.68)" style="fill:#3130bd"/><path d="M97,18.88a4.05,4.05,0,0,0,.91-1.41,6.62,6.62,0,0,0,.26-2l.06-2.42h5.44v5.81h1.07v3.81h-2V20.47H98.4v2.22h-2V18.88Zm2.33,0h2.37V14.71h-1.54v.88A6.62,6.62,0,0,1,99.35,18.88Z" transform="translate(-2.31 -2.68)" style="fill:#3130bd"/><path d="M110.1,13.07h2v7.4h-2V15.9l-2.48,4.57h-2v-7.4h2v4.56Z" transform="translate(-2.31 -2.68)" style="fill:#3130bd"/><path d="M120.74,13.48a2.91,2.91,0,0,1,2.27.95,3.69,3.69,0,0,1,.85,2.56v.09a3.51,3.51,0,0,1-1,2.57,3.38,3.38,0,0,1-2.53,1,3.25,3.25,0,0,1-2.55-1,4.05,4.05,0,0,1-1-2.83v-.33a7.86,7.86,0,0,1,.84-3.91,3.72,3.72,0,0,1,2.51-1.78,3.26,3.26,0,0,0,1.12-.38.61.61,0,0,0,.26-.52h1.6a2.12,2.12,0,0,1-.58,1.61,4.36,4.36,0,0,1-2,.84,2.52,2.52,0,0,0-1.39.69,2.77,2.77,0,0,0-.68,1.44A3.1,3.1,0,0,1,120.74,13.48Zm-.38,1.6a1.36,1.36,0,0,0-1.1.47,2.36,2.36,0,0,0-.4,1.53,2.34,2.34,0,0,0,.39,1.45,1.37,1.37,0,0,0,1.13.49,1.31,1.31,0,0,0,1.1-.49,2.24,2.24,0,0,0,.4-1.43v-.16a2,2,0,0,0-.4-1.38A1.38,1.38,0,0,0,120.36,15.08Z" transform="translate(-2.31 -2.68)" style="fill:#3130bd"/><path d="M129.33,20.47a2,2,0,0,1-.2-.66,2.4,2.4,0,0,1-1.87.79,2.61,2.61,0,0,1-1.8-.62,2,2,0,0,1-.71-1.59,2.07,2.07,0,0,1,.86-1.8,4.31,4.31,0,0,1,2.53-.64h.91v-.42a1.18,1.18,0,0,0-.27-.82,1,1,0,0,0-.83-.31,1.17,1.17,0,0,0-.78.24.81.81,0,0,0-.29.65h-2a2,2,0,0,1,.4-1.19,2.52,2.52,0,0,1,1.12-.85,4,4,0,0,1,1.62-.32,3.2,3.2,0,0,1,2.17.7,2.36,2.36,0,0,1,.81,1.92v3.21a3.49,3.49,0,0,0,.29,1.59v.12Zm-1.64-1.38a1.73,1.73,0,0,0,.81-.19,1.32,1.32,0,0,0,.55-.52V17.1h-.74c-1,0-1.52.35-1.58,1v.12a.78.78,0,0,0,.26.6A1,1,0,0,0,127.69,19.09Z" transform="translate(-2.31 -2.68)" style="fill:#3130bd"/><path d="M136.83,20.47a2.23,2.23,0,0,1-.2-.66,2.39,2.39,0,0,1-1.86.79A2.64,2.64,0,0,1,133,20a2,2,0,0,1-.71-1.59,2.08,2.08,0,0,1,.87-1.8,4.26,4.26,0,0,1,2.52-.64h.91v-.42a1.18,1.18,0,0,0-.27-.82,1,1,0,0,0-.82-.31,1.18,1.18,0,0,0-.79.24.81.81,0,0,0-.28.65h-2a2,2,0,0,1,.39-1.19,2.63,2.63,0,0,1,1.12-.85,4.09,4.09,0,0,1,1.63-.32,3.23,3.23,0,0,1,2.17.7,2.38,2.38,0,0,1,.8,1.92v3.21a3.61,3.61,0,0,0,.3,1.59v.12Zm-1.63-1.38a1.66,1.66,0,0,0,.8-.19,1.26,1.26,0,0,0,.55-.52V17.1h-.74c-1,0-1.51.35-1.58,1v.12a.75.75,0,0,0,.26.6A1,1,0,0,0,135.2,19.09Z" transform="translate(-2.31 -2.68)" style="fill:#3130bd"/><path d="M146.48,13.07v7.4h-2v-5.8h-1.75L142.64,17a5.2,5.2,0,0,1-.72,2.66,2.11,2.11,0,0,1-1.79.86h-.67l0-1.61.25,0a.92.92,0,0,0,.78-.63,6.85,6.85,0,0,0,.31-2l.13-3.14Z" transform="translate(-2.31 -2.68)" style="fill:#3130bd"/><path d="M147.7,16.7a4.41,4.41,0,0,1,.42-2,3.14,3.14,0,0,1,1.22-1.33,3.52,3.52,0,0,1,1.85-.48,3.36,3.36,0,0,1,2.44.92,3.63,3.63,0,0,1,1.06,2.49l0,.51a3.89,3.89,0,0,1-1,2.73,3.71,3.71,0,0,1-5.11,0,4,4,0,0,1-1-2.79Zm2,.15a2.82,2.82,0,0,0,.39,1.61,1.44,1.44,0,0,0,2.26,0,3,3,0,0,0,.4-1.77,2.72,2.72,0,0,0-.4-1.6,1.32,1.32,0,0,0-1.14-.57,1.29,1.29,0,0,0-1.12.57A3.13,3.13,0,0,0,149.68,16.85Z" transform="translate(-2.31 -2.68)" style="fill:#3130bd"/><path d="M155.67,16.7a4.41,4.41,0,0,1,.42-2,3.14,3.14,0,0,1,1.22-1.33,3.52,3.52,0,0,1,1.85-.48,3.36,3.36,0,0,1,2.44.92,3.63,3.63,0,0,1,1.06,2.49l0,.51a3.89,3.89,0,0,1-1,2.73,3.71,3.71,0,0,1-5.11,0,4,4,0,0,1-1-2.79Zm2,.15a2.82,2.82,0,0,0,.39,1.61,1.44,1.44,0,0,0,2.26,0,3,3,0,0,0,.4-1.77,2.72,2.72,0,0,0-.4-1.6,1.32,1.32,0,0,0-1.14-.57,1.29,1.29,0,0,0-1.12.57A3.13,3.13,0,0,0,157.65,16.85Z" transform="translate(-2.31 -2.68)" style="fill:#3130bd"/><path d="M174.53,17.73h-.9v2.74h-2V17.73h-.89l-1.47,2.74h-2.38l2.33-3.87L167,13.07h2.44l1.54,2.76h.73V13.07h2v2.76h.74l1.54-2.76h2.45l-2.29,3.48,2.35,3.92H176Z" transform="translate(-2.31 -2.68)" style="fill:#3130bd"/><path d="M183.66,20.47a2.23,2.23,0,0,1-.2-.66,2.4,2.4,0,0,1-1.87.79,2.63,2.63,0,0,1-1.8-.62,2,2,0,0,1-.71-1.59,2.08,2.08,0,0,1,.87-1.8,4.26,4.26,0,0,1,2.52-.64h.91v-.42a1.18,1.18,0,0,0-.27-.82,1,1,0,0,0-.82-.31,1.18,1.18,0,0,0-.79.24.81.81,0,0,0-.28.65h-2a2,2,0,0,1,.4-1.19,2.57,2.57,0,0,1,1.12-.85,4.05,4.05,0,0,1,1.63-.32,3.19,3.19,0,0,1,2.16.7,2.36,2.36,0,0,1,.81,1.92v3.21a3.48,3.48,0,0,0,.3,1.59v.12ZM182,19.09a1.66,1.66,0,0,0,.8-.19,1.26,1.26,0,0,0,.55-.52V17.1h-.74c-1,0-1.51.35-1.58,1v.12a.78.78,0,0,0,.26.6A1,1,0,0,0,182,19.09Z" transform="translate(-2.31 -2.68)" style="fill:#3130bd"/><path d="M193.29,20.47h-2V17.62h-2.46v2.85h-2v-7.4h2v3h2.46v-3h2Z" transform="translate(-2.31 -2.68)" style="fill:#3130bd"/><path d="M199.11,20.47a2.23,2.23,0,0,1-.2-.66,2.4,2.4,0,0,1-1.87.79,2.63,2.63,0,0,1-1.8-.62,2,2,0,0,1-.71-1.59,2.08,2.08,0,0,1,.87-1.8,4.26,4.26,0,0,1,2.52-.64h.91v-.42a1.18,1.18,0,0,0-.27-.82,1,1,0,0,0-.83-.31,1.17,1.17,0,0,0-.78.24.81.81,0,0,0-.28.65h-2a2,2,0,0,1,.4-1.19,2.57,2.57,0,0,1,1.12-.85,4.05,4.05,0,0,1,1.63-.32,3.19,3.19,0,0,1,2.16.7,2.36,2.36,0,0,1,.81,1.92v3.21a3.63,3.63,0,0,0,.29,1.59v.12Zm-1.64-1.38a1.67,1.67,0,0,0,.81-.19,1.26,1.26,0,0,0,.55-.52V17.1h-.74c-1,0-1.52.35-1.58,1v.12a.78.78,0,0,0,.26.6A1,1,0,0,0,197.47,19.09Z" transform="translate(-2.31 -2.68)" style="fill:#3130bd"/><path d="M205.51,16.7a4.41,4.41,0,0,1,.42-2,3.08,3.08,0,0,1,1.22-1.33,3.52,3.52,0,0,1,1.85-.48,3.36,3.36,0,0,1,2.44.92,3.67,3.67,0,0,1,1.06,2.49v.51a3.85,3.85,0,0,1-.95,2.73,3.7,3.7,0,0,1-5.1,0,3.9,3.9,0,0,1-1-2.79Zm2,.15a2.74,2.74,0,0,0,.4,1.61,1.43,1.43,0,0,0,2.25,0,3,3,0,0,0,.41-1.77,2.72,2.72,0,0,0-.41-1.6,1.4,1.4,0,0,0-2.25,0A3,3,0,0,0,207.48,16.85Z" transform="translate(-2.31 -2.68)" style="fill:#3130bd"/><path d="M216.63,17.74h-.79v2.73h-2v-7.4h2v2.78h.7l1.61-2.78h2.5l-2.42,3.52,2.64,3.88h-2.63Z" transform="translate(-2.31 -2.68)" style="fill:#3130bd"/><path d="M224.38,17.67l1.37-4.6h2.12l-3,8.55-.16.39a2.26,2.26,0,0,1-2.19,1.45,3.27,3.27,0,0,1-.87-.13v-1.5h.3a1.53,1.53,0,0,0,.83-.18,1.11,1.11,0,0,0,.44-.56l.23-.61-2.59-7.42H223Z" transform="translate(-2.31 -2.68)" style="fill:#3130bd"/><path d="M234.79,14.66h-2.38v5.81h-2V14.66H228.1V13.07h6.69Z" transform="translate(-2.31 -2.68)" style="fill:#3130bd"/><path d="M238.63,17.67l1.36-4.6h2.12l-3,8.55L239,22a2.28,2.28,0,0,1-2.19,1.45,3.41,3.41,0,0,1-.88-.13v-1.5h.3a1.54,1.54,0,0,0,.84-.18,1.17,1.17,0,0,0,.44-.56l.23-.61-2.59-7.42h2.12Z" transform="translate(-2.31 -2.68)" style="fill:#3130bd"/><path d="M245.65,17.67l1.37-4.6h2.12l-3,8.55L246,22a2.26,2.26,0,0,1-2.18,1.45,3.41,3.41,0,0,1-.88-.13v-1.5h.3a1.59,1.59,0,0,0,.84-.18,1.1,1.1,0,0,0,.43-.56l.24-.61-2.6-7.42h2.13Z" transform="translate(-2.31 -2.68)" style="fill:#3130bd"/><path d="M256.17,17.67l1.37-4.6h2.11l-3,8.55-.16.39a2.27,2.27,0,0,1-2.19,1.45,3.41,3.41,0,0,1-.88-.13v-1.5h.3a1.54,1.54,0,0,0,.84-.18,1.11,1.11,0,0,0,.44-.56l.23-.61-2.59-7.42h2.12Z" transform="translate(-2.31 -2.68)" style="fill:#3130bd"/><path d="M263.41,19a1.3,1.3,0,0,0,.89-.3,1.06,1.06,0,0,0,.36-.8h1.85a2.51,2.51,0,0,1-.41,1.38,2.69,2.69,0,0,1-1.11,1,3.41,3.41,0,0,1-1.54.34,3.2,3.2,0,0,1-2.5-1,4,4,0,0,1-.92-2.79v-.13a3.93,3.93,0,0,1,.91-2.73,3.18,3.18,0,0,1,2.49-1,3.11,3.11,0,0,1,2.23.8,2.77,2.77,0,0,1,.85,2.1h-1.85a1.31,1.31,0,0,0-.36-.93,1.31,1.31,0,0,0-1.95.14,3,3,0,0,0-.34,1.63v.2a3,3,0,0,0,.34,1.64A1.2,1.2,0,0,0,263.41,19Z" transform="translate(-2.31 -2.68)" style="fill:#3130bd"/><path d="M270.4,17.67l1.37-4.6h2.12l-3,8.55-.16.39a2.26,2.26,0,0,1-2.19,1.45,3.27,3.27,0,0,1-.87-.13v-1.5h.3a1.53,1.53,0,0,0,.83-.18,1.11,1.11,0,0,0,.44-.56l.23-.61-2.59-7.42H269Z" transform="translate(-2.31 -2.68)" style="fill:#3130bd"/><path d="M280.81,13.07v7.4h-2v-5.8h-1.75L277,17a5.2,5.2,0,0,1-.72,2.66,2.12,2.12,0,0,1-1.79.86h-.67l0-1.61.25,0a.92.92,0,0,0,.78-.63,6.59,6.59,0,0,0,.3-2l.14-3.14Z" transform="translate(-2.31 -2.68)" style="fill:#3130bd"/><path d="M282.44,18.88a4.05,4.05,0,0,0,.91-1.41,6.62,6.62,0,0,0,.26-2l.06-2.42h5.44v5.81h1.07v3.81h-2V20.47h-4.38v2.22h-2V18.88Zm2.33,0h2.37V14.71H285.6v.88A6.62,6.62,0,0,1,284.77,18.88Z" transform="translate(-2.31 -2.68)" style="fill:#3130bd"/><path d="M295.47,20.47a2.23,2.23,0,0,1-.2-.66,2.4,2.4,0,0,1-1.87.79,2.63,2.63,0,0,1-1.8-.62,2,2,0,0,1-.71-1.59,2.08,2.08,0,0,1,.87-1.8,4.26,4.26,0,0,1,2.52-.64h.91v-.42a1.18,1.18,0,0,0-.27-.82,1,1,0,0,0-.83-.31,1.17,1.17,0,0,0-.78.24.81.81,0,0,0-.28.65h-2a2,2,0,0,1,.4-1.19,2.57,2.57,0,0,1,1.12-.85,4,4,0,0,1,1.63-.32,3.19,3.19,0,0,1,2.16.7,2.36,2.36,0,0,1,.81,1.92v3.21a3.49,3.49,0,0,0,.29,1.59v.12Zm-1.64-1.38a1.7,1.7,0,0,0,.81-.19,1.26,1.26,0,0,0,.55-.52V17.1h-.74c-1,0-1.52.35-1.58,1v.12a.78.78,0,0,0,.26.6A1,1,0,0,0,293.83,19.09Z" transform="translate(-2.31 -2.68)" style="fill:#3130bd"/><path d="M305.35,16.84a4.43,4.43,0,0,1-.78,2.74,2.51,2.51,0,0,1-2.1,1,2.3,2.3,0,0,1-1.81-.77v3.48h-2V13.07h1.83l.07.73a2.31,2.31,0,0,1,1.87-.87,2.51,2.51,0,0,1,2.13,1,4.58,4.58,0,0,1,.76,2.79Zm-2-.15A2.88,2.88,0,0,0,303,15.1a1.18,1.18,0,0,0-1.06-.56,1.31,1.31,0,0,0-1.28.71v3A1.32,1.32,0,0,0,302,19C302.9,19,303.37,18.24,303.37,16.69Z" transform="translate(-2.31 -2.68)" style="fill:#3130bd"/><path d="M308.69,15.24h1.41a4.24,4.24,0,0,1,1.69.32,2.39,2.39,0,0,1,1.1.92,2.49,2.49,0,0,1,.39,1.39,2.33,2.33,0,0,1-.87,1.89,3.58,3.58,0,0,1-2.35.71h-3.35v-7.4h2Zm7.74,5.23h-2v-7.4h2Zm-7.74-3.65v2.07h1.4a1.34,1.34,0,0,0,.9-.27,1,1,0,0,0,.32-.75,1,1,0,0,0-.31-.76,1.31,1.31,0,0,0-.91-.29Z" transform="translate(-2.31 -2.68)" style="fill:#3130bd"/><path d="M325.33,13.48a2.91,2.91,0,0,1,2.27.95,3.69,3.69,0,0,1,.84,2.56v.09a3.51,3.51,0,0,1-.94,2.57,3.39,3.39,0,0,1-2.54,1,3.25,3.25,0,0,1-2.54-1,4.05,4.05,0,0,1-.95-2.83v-.33a7.86,7.86,0,0,1,.84-3.91,3.73,3.73,0,0,1,2.5-1.78,3.35,3.35,0,0,0,1.13-.38.61.61,0,0,0,.26-.52h1.6a2.09,2.09,0,0,1-.59,1.61,4.26,4.26,0,0,1-2,.84,2.52,2.52,0,0,0-1.38.69,2.77,2.77,0,0,0-.68,1.44A3.1,3.1,0,0,1,325.33,13.48Zm-.38,1.6a1.4,1.4,0,0,0-1.11.47,2.42,2.42,0,0,0-.39,1.53,2.34,2.34,0,0,0,.39,1.45A1.36,1.36,0,0,0,325,19a1.33,1.33,0,0,0,1.11-.49,2.3,2.3,0,0,0,.4-1.43v-.16a2.1,2.1,0,0,0-.4-1.38A1.38,1.38,0,0,0,325,15.08Z" transform="translate(-2.31 -2.68)" style="fill:#3130bd"/><path d="M329.32,16.7a4.41,4.41,0,0,1,.42-2A3.14,3.14,0,0,1,331,13.41a3.52,3.52,0,0,1,1.85-.48,3.36,3.36,0,0,1,2.44.92,3.63,3.63,0,0,1,1.06,2.49l0,.51a3.89,3.89,0,0,1-.95,2.73,3.71,3.71,0,0,1-5.11,0,4,4,0,0,1-.95-2.79Zm2,.15a2.82,2.82,0,0,0,.39,1.61,1.31,1.31,0,0,0,1.14.55,1.33,1.33,0,0,0,1.12-.54,3,3,0,0,0,.4-1.77,2.72,2.72,0,0,0-.4-1.6,1.32,1.32,0,0,0-1.14-.57,1.29,1.29,0,0,0-1.12.57A3.13,3.13,0,0,0,331.3,16.85Z" transform="translate(-2.31 -2.68)" style="fill:#3130bd"/><path d="M344.2,16.84a4.43,4.43,0,0,1-.78,2.74,2.48,2.48,0,0,1-2.09,1,2.29,2.29,0,0,1-1.81-.77v3.48h-2V13.07h1.84l.06.73a2.33,2.33,0,0,1,1.88-.87,2.48,2.48,0,0,1,2.12,1,4.51,4.51,0,0,1,.76,2.79Zm-2-.15a3,3,0,0,0-.37-1.59,1.21,1.21,0,0,0-1.06-.56,1.3,1.3,0,0,0-1.28.71v3a1.31,1.31,0,0,0,1.29.73C341.75,19,342.23,18.24,342.23,16.69Z" transform="translate(-2.31 -2.68)" style="fill:#3130bd"/><path d="M349.1,13.48a2.89,2.89,0,0,1,2.27.95,3.65,3.65,0,0,1,.85,2.56v.09a3.51,3.51,0,0,1-.94,2.57,3.41,3.41,0,0,1-2.54,1,3.25,3.25,0,0,1-2.55-1,4,4,0,0,1-.94-2.83v-.33a7.86,7.86,0,0,1,.84-3.91,3.71,3.71,0,0,1,2.5-1.78,3.44,3.44,0,0,0,1.13-.38.6.6,0,0,0,.25-.52h1.6a2.09,2.09,0,0,1-.58,1.61,4.31,4.31,0,0,1-2.05.84,2.48,2.48,0,0,0-1.38.69,2.71,2.71,0,0,0-.69,1.44A3.12,3.12,0,0,1,349.1,13.48Zm-.37,1.6a1.4,1.4,0,0,0-1.11.47,2.36,2.36,0,0,0-.4,1.53,2.34,2.34,0,0,0,.39,1.45,1.38,1.38,0,0,0,1.13.49,1.33,1.33,0,0,0,1.11-.49,2.24,2.24,0,0,0,.39-1.43v-.16a2,2,0,0,0-.4-1.38A1.35,1.35,0,0,0,348.73,15.08Z" transform="translate(-2.31 -2.68)" style="fill:#3130bd"/><path d="M353.09,16.7a4.41,4.41,0,0,1,.43-2,3.08,3.08,0,0,1,1.22-1.33,3.52,3.52,0,0,1,1.85-.48,3.36,3.36,0,0,1,2.44.92,3.67,3.67,0,0,1,1.06,2.49v.51a3.89,3.89,0,0,1-1,2.73,3.7,3.7,0,0,1-5.1,0,3.91,3.91,0,0,1-1-2.79Zm2,.15a2.74,2.74,0,0,0,.4,1.61,1.3,1.3,0,0,0,1.13.55,1.32,1.32,0,0,0,1.12-.54,3,3,0,0,0,.41-1.77,2.72,2.72,0,0,0-.41-1.6,1.3,1.3,0,0,0-1.13-.57,1.27,1.27,0,0,0-1.12.57A3,3,0,0,0,355.07,16.85Z" transform="translate(-2.31 -2.68)" style="fill:#3130bd"/><path d="M368,16.84a4.43,4.43,0,0,1-.78,2.74,2.49,2.49,0,0,1-2.09,1,2.31,2.31,0,0,1-1.82-.77v3.48h-2V13.07h1.83l.07.73a2.31,2.31,0,0,1,1.87-.87,2.51,2.51,0,0,1,2.13,1,4.58,4.58,0,0,1,.76,2.79Zm-2-.15a2.88,2.88,0,0,0-.37-1.59,1.18,1.18,0,0,0-1.06-.56,1.31,1.31,0,0,0-1.28.71v3a1.33,1.33,0,0,0,1.3.73C365.53,19,366,18.24,366,16.69Z" transform="translate(-2.31 -2.68)" style="fill:#3130bd"/><path d="M371.89,17.67l1.36-4.6h2.12l-3,8.55-.16.39a2.28,2.28,0,0,1-2.19,1.45,3.41,3.41,0,0,1-.88-.13v-1.5h.3a1.54,1.54,0,0,0,.84-.18,1.17,1.17,0,0,0,.44-.56l.23-.61-2.59-7.42h2.12Z" transform="translate(-2.31 -2.68)" style="fill:#3130bd"/></svg>